ISO-10303-21;
HEADER;
/* Generated by software containing ST-Developer
 * from STEP Tools, Inc. (www.steptools.com) 
 */

FILE_DESCRIPTION(
/* description */ (''),
/* implementation_level */ '2;1');

FILE_NAME(
/* name */ 'board_housing_stg.step',
/* time_stamp */ '2026-01-22T12:53:25+01:00',
/* author */ (''),
/* organization */ (''),
/* preprocessor_version */ 'ST-DEVELOPER v20.1',
/* originating_system */ 'Autodesk Translation Framework v14.21.0.0',
/* authorisation */ '');

FILE_SCHEMA (('AUTOMOTIVE_DESIGN { 1 0 10303 214 3 1 1 }'));
ENDSEC;

DATA;
#10=MECHANICAL_DESIGN_GEOMETRIC_PRESENTATION_REPRESENTATION('',(#21),#978);
#11=ITEM_DEFINED_TRANSFORMATION($,$,#570,#622);
#12=ITEM_DEFINED_TRANSFORMATION($,$,#571,#623);
#13=(
REPRESENTATION_RELATIONSHIP($,$,#992,#991)
REPRESENTATION_RELATIONSHIP_WITH_TRANSFORMATION(#11)
SHAPE_REPRESENTATION_RELATIONSHIP()
);
#14=(
REPRESENTATION_RELATIONSHIP($,$,#993,#991)
REPRESENTATION_RELATIONSHIP_WITH_TRANSFORMATION(#12)
SHAPE_REPRESENTATION_RELATIONSHIP()
);
#15=CONTEXT_DEPENDENT_SHAPE_REPRESENTATION(#13,#989);
#16=CONTEXT_DEPENDENT_SHAPE_REPRESENTATION(#14,#990);
#17=NEXT_ASSEMBLY_USAGE_OCCURRENCE('uC_Agri-PV v1:2','uC_Agri-PV v1:2',
'uC_Agri-PV v1:2',#995,#996,'uC_Agri-PV v1:2');
#18=NEXT_ASSEMBLY_USAGE_OCCURRENCE('adapter_stange:1',
'adapter_stange:1','adapter_stange:1',#995,#997,'adapter_stange:1');
#19=SHAPE_REPRESENTATION_RELATIONSHIP('SRR','None',#993,#20);
#20=ADVANCED_BREP_SHAPE_REPRESENTATION('',(#22),#977);
#21=STYLED_ITEM('',(#1010),#22);
#22=MANIFOLD_SOLID_BREP('K\X\F6rper1',#556);
#23=B_SPLINE_CURVE_WITH_KNOTS('',3,(#900,#901,#902,#903,#904,#905,#906,
#907,#908,#909,#910,#911,#912,#913,#914,#915,#916,#917,#918,#919,#920,#921,
#922,#923,#924,#925,#926,#927,#928,#929,#930,#931,#932,#933),
 .UNSPECIFIED.,.T.,.F.,(4,2,2,2,2,2,2,2,2,2,2,2,2,2,2,2,4),(-6.10698487275516,
-5.72507777820835,-5.34317068366154,-4.96170466911396,-4.58023865456637,
-4.19877264001878,-3.8173066254712,-3.43539953092439,-3.05349243637758,
-2.67158534183077,-2.28967824728396,-1.90821223273638,-1.52674621818879,
-1.1452802036412,-0.763814189093616,-0.381907094546808,0.),
 .UNSPECIFIED.);
#24=CIRCLE('',#584,1.54999999999999);
#25=CIRCLE('',#587,1.55);
#26=CIRCLE('',#589,1.54999999999999);
#27=CIRCLE('',#592,1.55);
#28=CIRCLE('',#597,24.25);
#29=CIRCLE('',#599,24.25);
#30=CIRCLE('',#602,10.);
#31=CIRCLE('',#604,3.2);
#32=CIRCLE('',#606,3.2);
#33=CIRCLE('',#608,3.2);
#34=CIRCLE('',#610,3.2);
#35=CIRCLE('',#612,3.2);
#36=CIRCLE('',#614,3.2);
#37=CIRCLE('',#616,3.2);
#38=CIRCLE('',#618,3.2);
#39=CYLINDRICAL_SURFACE('',#583,1.54999999999999);
#40=CYLINDRICAL_SURFACE('',#586,1.55);
#41=CYLINDRICAL_SURFACE('',#588,1.54999999999999);
#42=CYLINDRICAL_SURFACE('',#591,1.55);
#43=CYLINDRICAL_SURFACE('',#600,24.25);
#44=CYLINDRICAL_SURFACE('',#611,3.2);
#45=CYLINDRICAL_SURFACE('',#613,3.2);
#46=CYLINDRICAL_SURFACE('',#615,3.2);
#47=CYLINDRICAL_SURFACE('',#617,3.2);
#48=CYLINDRICAL_SURFACE('',#619,10.);
#49=FACE_BOUND('',#107,.T.);
#50=FACE_BOUND('',#108,.T.);
#51=FACE_BOUND('',#115,.T.);
#52=FACE_BOUND('',#116,.T.);
#53=FACE_BOUND('',#121,.T.);
#54=FACE_BOUND('',#123,.T.);
#55=FACE_BOUND('',#124,.T.);
#56=FACE_BOUND('',#125,.T.);
#57=FACE_BOUND('',#126,.T.);
#58=FACE_BOUND('',#127,.T.);
#59=FACE_BOUND('',#138,.T.);
#60=FACE_BOUND('',#139,.T.);
#61=FACE_BOUND('',#141,.T.);
#62=FACE_BOUND('',#142,.T.);
#63=ELLIPSE('',#581,2.02338129846503,1.55);
#64=ELLIPSE('',#582,2.02338129846503,1.55);
#65=ELLIPSE('',#585,2.023381298465,1.54999999999999);
#66=ELLIPSE('',#590,2.023381298465,1.54999999999999);
#67=FACE_OUTER_BOUND('',#98,.T.);
#68=FACE_OUTER_BOUND('',#99,.T.);
#69=FACE_OUTER_BOUND('',#100,.T.);
#70=FACE_OUTER_BOUND('',#101,.T.);
#71=FACE_OUTER_BOUND('',#102,.T.);
#72=FACE_OUTER_BOUND('',#103,.T.);
#73=FACE_OUTER_BOUND('',#104,.T.);
#74=FACE_OUTER_BOUND('',#105,.T.);
#75=FACE_OUTER_BOUND('',#106,.T.);
#76=FACE_OUTER_BOUND('',#109,.T.);
#77=FACE_OUTER_BOUND('',#110,.T.);
#78=FACE_OUTER_BOUND('',#111,.T.);
#79=FACE_OUTER_BOUND('',#112,.T.);
#80=FACE_OUTER_BOUND('',#113,.T.);
#81=FACE_OUTER_BOUND('',#114,.T.);
#82=FACE_OUTER_BOUND('',#117,.T.);
#83=FACE_OUTER_BOUND('',#118,.T.);
#84=FACE_OUTER_BOUND('',#119,.T.);
#85=FACE_OUTER_BOUND('',#120,.T.);
#86=FACE_OUTER_BOUND('',#122,.T.);
#87=FACE_OUTER_BOUND('',#128,.T.);
#88=FACE_OUTER_BOUND('',#129,.T.);
#89=FACE_OUTER_BOUND('',#130,.T.);
#90=FACE_OUTER_BOUND('',#131,.T.);
#91=FACE_OUTER_BOUND('',#132,.T.);
#92=FACE_OUTER_BOUND('',#133,.T.);
#93=FACE_OUTER_BOUND('',#134,.T.);
#94=FACE_OUTER_BOUND('',#135,.T.);
#95=FACE_OUTER_BOUND('',#136,.T.);
#96=FACE_OUTER_BOUND('',#137,.T.);
#97=FACE_OUTER_BOUND('',#140,.T.);
#98=EDGE_LOOP('',(#362,#363,#364));
#99=EDGE_LOOP('',(#365,#366,#367));
#100=EDGE_LOOP('',(#368,#369,#370,#371));
#101=EDGE_LOOP('',(#372,#373,#374,#375));
#102=EDGE_LOOP('',(#376,#377,#378,#379));
#103=EDGE_LOOP('',(#380,#381,#382));
#104=EDGE_LOOP('',(#383,#384,#385,#386));
#105=EDGE_LOOP('',(#387,#388,#389));
#106=EDGE_LOOP('',(#390,#391,#392,#393,#394,#395,#396,#397));
#107=EDGE_LOOP('',(#398));
#108=EDGE_LOOP('',(#399));
#109=EDGE_LOOP('',(#400,#401,#402,#403));
#110=EDGE_LOOP('',(#404,#405,#406,#407));
#111=EDGE_LOOP('',(#408,#409,#410,#411));
#112=EDGE_LOOP('',(#412,#413,#414,#415));
#113=EDGE_LOOP('',(#416,#417,#418,#419));
#114=EDGE_LOOP('',(#420,#421,#422,#423,#424,#425,#426,#427));
#115=EDGE_LOOP('',(#428));
#116=EDGE_LOOP('',(#429));
#117=EDGE_LOOP('',(#430,#431,#432,#433));
#118=EDGE_LOOP('',(#434,#435,#436,#437,#438,#439,#440,#441));
#119=EDGE_LOOP('',(#442,#443,#444,#445,#446,#447,#448,#449));
#120=EDGE_LOOP('',(#450,#451,#452,#453));
#121=EDGE_LOOP('',(#454));
#122=EDGE_LOOP('',(#455,#456,#457,#458));
#123=EDGE_LOOP('',(#459));
#124=EDGE_LOOP('',(#460));
#125=EDGE_LOOP('',(#461));
#126=EDGE_LOOP('',(#462));
#127=EDGE_LOOP('',(#463));
#128=EDGE_LOOP('',(#464));
#129=EDGE_LOOP('',(#465));
#130=EDGE_LOOP('',(#466));
#131=EDGE_LOOP('',(#467));
#132=EDGE_LOOP('',(#468,#469,#470,#471));
#133=EDGE_LOOP('',(#472,#473,#474,#475));
#134=EDGE_LOOP('',(#476,#477,#478,#479));
#135=EDGE_LOOP('',(#480,#481,#482,#483));
#136=EDGE_LOOP('',(#484,#485,#486,#487));
#137=EDGE_LOOP('',(#488,#489,#490,#491,#492,#493));
#138=EDGE_LOOP('',(#494));
#139=EDGE_LOOP('',(#495));
#140=EDGE_LOOP('',(#496,#497,#498,#499,#500,#501));
#141=EDGE_LOOP('',(#502));
#142=EDGE_LOOP('',(#503));
#143=LINE('',#791,#194);
#144=LINE('',#793,#195);
#145=LINE('',#794,#196);
#146=LINE('',#798,#197);
#147=LINE('',#800,#198);
#148=LINE('',#801,#199);
#149=LINE('',#803,#200);
#150=LINE('',#804,#201);
#151=LINE('',#806,#202);
#152=LINE('',#810,#203);
#153=LINE('',#812,#204);
#154=LINE('',#814,#205);
#155=LINE('',#815,#206);
#156=LINE('',#818,#207);
#157=LINE('',#819,#208);
#158=LINE('',#822,#209);
#159=LINE('',#823,#210);
#160=LINE('',#825,#211);
#161=LINE('',#828,#212);
#162=LINE('',#830,#213);
#163=LINE('',#832,#214);
#164=LINE('',#834,#215);
#165=LINE('',#835,#216);
#166=LINE('',#844,#217);
#167=LINE('',#849,#218);
#168=LINE('',#854,#219);
#169=LINE('',#859,#220);
#170=LINE('',#862,#221);
#171=LINE('',#864,#222);
#172=LINE('',#865,#223);
#173=LINE('',#868,#224);
#174=LINE('',#870,#225);
#175=LINE('',#872,#226);
#176=LINE('',#874,#227);
#177=LINE('',#875,#228);
#178=LINE('',#878,#229);
#179=LINE('',#880,#230);
#180=LINE('',#881,#231);
#181=LINE('',#884,#232);
#182=LINE('',#887,#233);
#183=LINE('',#888,#234);
#184=LINE('',#890,#235);
#185=LINE('',#892,#236);
#186=LINE('',#895,#237);
#187=LINE('',#897,#238);
#188=LINE('',#898,#239);
#189=LINE('',#951,#240);
#190=LINE('',#955,#241);
#191=LINE('',#959,#242);
#192=LINE('',#963,#243);
#193=LINE('',#966,#244);
#194=VECTOR('',#632,10.);
#195=VECTOR('',#633,10.);
#196=VECTOR('',#634,10.);
#197=VECTOR('',#637,10.);
#198=VECTOR('',#638,10.);
#199=VECTOR('',#639,10.);
#200=VECTOR('',#642,50.);
#201=VECTOR('',#643,10.);
#202=VECTOR('',#646,10.);
#203=VECTOR('',#649,10.);
#204=VECTOR('',#650,10.);
#205=VECTOR('',#651,10.);
#206=VECTOR('',#652,10.);
#207=VECTOR('',#655,10.);
#208=VECTOR('',#656,10.);
#209=VECTOR('',#659,50.);
#210=VECTOR('',#660,10.);
#211=VECTOR('',#663,10.);
#212=VECTOR('',#666,50.);
#213=VECTOR('',#667,10.);
#214=VECTOR('',#668,10.);
#215=VECTOR('',#669,10.);
#216=VECTOR('',#670,50.);
#217=VECTOR('',#679,1.54999999999999);
#218=VECTOR('',#686,1.55);
#219=VECTOR('',#691,1.54999999999999);
#220=VECTOR('',#698,1.55);
#221=VECTOR('',#701,10.);
#222=VECTOR('',#702,10.);
#223=VECTOR('',#703,10.);
#224=VECTOR('',#706,50.);
#225=VECTOR('',#707,10.);
#226=VECTOR('',#708,10.);
#227=VECTOR('',#709,10.);
#228=VECTOR('',#710,50.);
#229=VECTOR('',#713,10.);
#230=VECTOR('',#714,10.);
#231=VECTOR('',#715,10.);
#232=VECTOR('',#718,13.25);
#233=VECTOR('',#721,13.25);
#234=VECTOR('',#722,10.);
#235=VECTOR('',#725,10.);
#236=VECTOR('',#726,13.25);
#237=VECTOR('',#729,13.25);
#238=VECTOR('',#732,50.);
#239=VECTOR('',#733,50.);
#240=VECTOR('',#756,3.2);
#241=VECTOR('',#761,3.2);
#242=VECTOR('',#766,3.2);
#243=VECTOR('',#771,3.2);
#244=VECTOR('',#776,10.);
#245=VERTEX_POINT('',#789);
#246=VERTEX_POINT('',#790);
#247=VERTEX_POINT('',#792);
#248=VERTEX_POINT('',#796);
#249=VERTEX_POINT('',#797);
#250=VERTEX_POINT('',#799);
#251=VERTEX_POINT('',#808);
#252=VERTEX_POINT('',#809);
#253=VERTEX_POINT('',#811);
#254=VERTEX_POINT('',#813);
#255=VERTEX_POINT('',#817);
#256=VERTEX_POINT('',#821);
#257=VERTEX_POINT('',#827);
#258=VERTEX_POINT('',#829);
#259=VERTEX_POINT('',#831);
#260=VERTEX_POINT('',#833);
#261=VERTEX_POINT('',#836);
#262=VERTEX_POINT('',#838);
#263=VERTEX_POINT('',#841);
#264=VERTEX_POINT('',#843);
#265=VERTEX_POINT('',#847);
#266=VERTEX_POINT('',#851);
#267=VERTEX_POINT('',#853);
#268=VERTEX_POINT('',#857);
#269=VERTEX_POINT('',#861);
#270=VERTEX_POINT('',#863);
#271=VERTEX_POINT('',#867);
#272=VERTEX_POINT('',#869);
#273=VERTEX_POINT('',#871);
#274=VERTEX_POINT('',#873);
#275=VERTEX_POINT('',#877);
#276=VERTEX_POINT('',#879);
#277=VERTEX_POINT('',#883);
#278=VERTEX_POINT('',#885);
#279=VERTEX_POINT('',#891);
#280=VERTEX_POINT('',#893);
#281=VERTEX_POINT('',#899);
#282=VERTEX_POINT('',#935);
#283=VERTEX_POINT('',#938);
#284=VERTEX_POINT('',#941);
#285=VERTEX_POINT('',#944);
#286=VERTEX_POINT('',#947);
#287=VERTEX_POINT('',#950);
#288=VERTEX_POINT('',#954);
#289=VERTEX_POINT('',#958);
#290=VERTEX_POINT('',#962);
#291=EDGE_CURVE('',#245,#246,#143,.T.);
#292=EDGE_CURVE('',#245,#247,#144,.T.);
#293=EDGE_CURVE('',#246,#247,#145,.T.);
#294=EDGE_CURVE('',#248,#249,#146,.T.);
#295=EDGE_CURVE('',#248,#250,#147,.T.);
#296=EDGE_CURVE('',#250,#249,#148,.T.);
#297=EDGE_CURVE('',#248,#246,#149,.T.);
#298=EDGE_CURVE('',#247,#250,#150,.T.);
#299=EDGE_CURVE('',#249,#245,#151,.T.);
#300=EDGE_CURVE('',#251,#252,#152,.T.);
#301=EDGE_CURVE('',#253,#251,#153,.T.);
#302=EDGE_CURVE('',#254,#253,#154,.T.);
#303=EDGE_CURVE('',#252,#254,#155,.T.);
#304=EDGE_CURVE('',#252,#255,#156,.T.);
#305=EDGE_CURVE('',#255,#254,#157,.T.);
#306=EDGE_CURVE('',#255,#256,#158,.T.);
#307=EDGE_CURVE('',#256,#253,#159,.T.);
#308=EDGE_CURVE('',#256,#251,#160,.T.);
#309=EDGE_CURVE('',#257,#255,#161,.T.);
#310=EDGE_CURVE('',#258,#257,#162,.T.);
#311=EDGE_CURVE('',#258,#259,#163,.T.);
#312=EDGE_CURVE('',#260,#259,#164,.T.);
#313=EDGE_CURVE('',#256,#260,#165,.T.);
#314=EDGE_CURVE('',#261,#261,#63,.T.);
#315=EDGE_CURVE('',#262,#262,#64,.T.);
#316=EDGE_CURVE('',#263,#263,#24,.T.);
#317=EDGE_CURVE('',#263,#264,#166,.T.);
#318=EDGE_CURVE('',#264,#264,#65,.T.);
#319=EDGE_CURVE('',#265,#265,#25,.T.);
#320=EDGE_CURVE('',#265,#262,#167,.T.);
#321=EDGE_CURVE('',#266,#266,#26,.T.);
#322=EDGE_CURVE('',#266,#267,#168,.T.);
#323=EDGE_CURVE('',#267,#267,#66,.T.);
#324=EDGE_CURVE('',#268,#268,#27,.T.);
#325=EDGE_CURVE('',#268,#261,#169,.T.);
#326=EDGE_CURVE('',#269,#258,#170,.T.);
#327=EDGE_CURVE('',#269,#270,#171,.T.);
#328=EDGE_CURVE('',#259,#270,#172,.T.);
#329=EDGE_CURVE('',#246,#271,#173,.T.);
#330=EDGE_CURVE('',#272,#271,#174,.T.);
#331=EDGE_CURVE('',#273,#272,#175,.T.);
#332=EDGE_CURVE('',#273,#274,#176,.T.);
#333=EDGE_CURVE('',#274,#248,#177,.T.);
#334=EDGE_CURVE('',#275,#273,#178,.T.);
#335=EDGE_CURVE('',#276,#272,#179,.T.);
#336=EDGE_CURVE('',#275,#276,#180,.T.);
#337=EDGE_CURVE('',#257,#277,#181,.T.);
#338=EDGE_CURVE('',#277,#278,#28,.T.);
#339=EDGE_CURVE('',#278,#274,#182,.T.);
#340=EDGE_CURVE('',#269,#275,#183,.T.);
#341=EDGE_CURVE('',#270,#276,#184,.T.);
#342=EDGE_CURVE('',#279,#271,#185,.T.);
#343=EDGE_CURVE('',#279,#280,#29,.T.);
#344=EDGE_CURVE('',#260,#280,#186,.T.);
#345=EDGE_CURVE('',#277,#280,#187,.T.);
#346=EDGE_CURVE('',#278,#279,#188,.T.);
#347=EDGE_CURVE('',#281,#281,#23,.T.);
#348=EDGE_CURVE('',#282,#282,#30,.T.);
#349=EDGE_CURVE('',#283,#283,#31,.T.);
#350=EDGE_CURVE('',#284,#284,#32,.T.);
#351=EDGE_CURVE('',#285,#285,#33,.T.);
#352=EDGE_CURVE('',#286,#286,#34,.T.);
#353=EDGE_CURVE('',#286,#287,#189,.T.);
#354=EDGE_CURVE('',#287,#287,#35,.T.);
#355=EDGE_CURVE('',#285,#288,#190,.T.);
#356=EDGE_CURVE('',#288,#288,#36,.T.);
#357=EDGE_CURVE('',#284,#289,#191,.T.);
#358=EDGE_CURVE('',#289,#289,#37,.T.);
#359=EDGE_CURVE('',#283,#290,#192,.T.);
#360=EDGE_CURVE('',#290,#290,#38,.T.);
#361=EDGE_CURVE('',#281,#282,#193,.T.);
#362=ORIENTED_EDGE('',*,*,#291,.F.);
#363=ORIENTED_EDGE('',*,*,#292,.T.);
#364=ORIENTED_EDGE('',*,*,#293,.F.);
#365=ORIENTED_EDGE('',*,*,#294,.F.);
#366=ORIENTED_EDGE('',*,*,#295,.T.);
#367=ORIENTED_EDGE('',*,*,#296,.T.);
#368=ORIENTED_EDGE('',*,*,#297,.T.);
#369=ORIENTED_EDGE('',*,*,#293,.T.);
#370=ORIENTED_EDGE('',*,*,#298,.T.);
#371=ORIENTED_EDGE('',*,*,#295,.F.);
#372=ORIENTED_EDGE('',*,*,#299,.F.);
#373=ORIENTED_EDGE('',*,*,#296,.F.);
#374=ORIENTED_EDGE('',*,*,#298,.F.);
#375=ORIENTED_EDGE('',*,*,#292,.F.);
#376=ORIENTED_EDGE('',*,*,#300,.F.);
#377=ORIENTED_EDGE('',*,*,#301,.F.);
#378=ORIENTED_EDGE('',*,*,#302,.F.);
#379=ORIENTED_EDGE('',*,*,#303,.F.);
#380=ORIENTED_EDGE('',*,*,#304,.F.);
#381=ORIENTED_EDGE('',*,*,#303,.T.);
#382=ORIENTED_EDGE('',*,*,#305,.F.);
#383=ORIENTED_EDGE('',*,*,#306,.F.);
#384=ORIENTED_EDGE('',*,*,#305,.T.);
#385=ORIENTED_EDGE('',*,*,#302,.T.);
#386=ORIENTED_EDGE('',*,*,#307,.F.);
#387=ORIENTED_EDGE('',*,*,#308,.F.);
#388=ORIENTED_EDGE('',*,*,#307,.T.);
#389=ORIENTED_EDGE('',*,*,#301,.T.);
#390=ORIENTED_EDGE('',*,*,#308,.T.);
#391=ORIENTED_EDGE('',*,*,#300,.T.);
#392=ORIENTED_EDGE('',*,*,#304,.T.);
#393=ORIENTED_EDGE('',*,*,#309,.F.);
#394=ORIENTED_EDGE('',*,*,#310,.F.);
#395=ORIENTED_EDGE('',*,*,#311,.T.);
#396=ORIENTED_EDGE('',*,*,#312,.F.);
#397=ORIENTED_EDGE('',*,*,#313,.F.);
#398=ORIENTED_EDGE('',*,*,#314,.T.);
#399=ORIENTED_EDGE('',*,*,#315,.T.);
#400=ORIENTED_EDGE('',*,*,#316,.F.);
#401=ORIENTED_EDGE('',*,*,#317,.T.);
#402=ORIENTED_EDGE('',*,*,#318,.F.);
#403=ORIENTED_EDGE('',*,*,#317,.F.);
#404=ORIENTED_EDGE('',*,*,#319,.F.);
#405=ORIENTED_EDGE('',*,*,#320,.T.);
#406=ORIENTED_EDGE('',*,*,#315,.F.);
#407=ORIENTED_EDGE('',*,*,#320,.F.);
#408=ORIENTED_EDGE('',*,*,#321,.F.);
#409=ORIENTED_EDGE('',*,*,#322,.T.);
#410=ORIENTED_EDGE('',*,*,#323,.F.);
#411=ORIENTED_EDGE('',*,*,#322,.F.);
#412=ORIENTED_EDGE('',*,*,#324,.F.);
#413=ORIENTED_EDGE('',*,*,#325,.T.);
#414=ORIENTED_EDGE('',*,*,#314,.F.);
#415=ORIENTED_EDGE('',*,*,#325,.F.);
#416=ORIENTED_EDGE('',*,*,#326,.F.);
#417=ORIENTED_EDGE('',*,*,#327,.T.);
#418=ORIENTED_EDGE('',*,*,#328,.F.);
#419=ORIENTED_EDGE('',*,*,#311,.F.);
#420=ORIENTED_EDGE('',*,*,#291,.T.);
#421=ORIENTED_EDGE('',*,*,#329,.T.);
#422=ORIENTED_EDGE('',*,*,#330,.F.);
#423=ORIENTED_EDGE('',*,*,#331,.F.);
#424=ORIENTED_EDGE('',*,*,#332,.T.);
#425=ORIENTED_EDGE('',*,*,#333,.T.);
#426=ORIENTED_EDGE('',*,*,#294,.T.);
#427=ORIENTED_EDGE('',*,*,#299,.T.);
#428=ORIENTED_EDGE('',*,*,#318,.T.);
#429=ORIENTED_EDGE('',*,*,#323,.T.);
#430=ORIENTED_EDGE('',*,*,#334,.T.);
#431=ORIENTED_EDGE('',*,*,#331,.T.);
#432=ORIENTED_EDGE('',*,*,#335,.F.);
#433=ORIENTED_EDGE('',*,*,#336,.F.);
#434=ORIENTED_EDGE('',*,*,#337,.T.);
#435=ORIENTED_EDGE('',*,*,#338,.T.);
#436=ORIENTED_EDGE('',*,*,#339,.T.);
#437=ORIENTED_EDGE('',*,*,#332,.F.);
#438=ORIENTED_EDGE('',*,*,#334,.F.);
#439=ORIENTED_EDGE('',*,*,#340,.F.);
#440=ORIENTED_EDGE('',*,*,#326,.T.);
#441=ORIENTED_EDGE('',*,*,#310,.T.);
#442=ORIENTED_EDGE('',*,*,#341,.T.);
#443=ORIENTED_EDGE('',*,*,#335,.T.);
#444=ORIENTED_EDGE('',*,*,#330,.T.);
#445=ORIENTED_EDGE('',*,*,#342,.F.);
#446=ORIENTED_EDGE('',*,*,#343,.T.);
#447=ORIENTED_EDGE('',*,*,#344,.F.);
#448=ORIENTED_EDGE('',*,*,#312,.T.);
#449=ORIENTED_EDGE('',*,*,#328,.T.);
#450=ORIENTED_EDGE('',*,*,#338,.F.);
#451=ORIENTED_EDGE('',*,*,#345,.T.);
#452=ORIENTED_EDGE('',*,*,#343,.F.);
#453=ORIENTED_EDGE('',*,*,#346,.F.);
#454=ORIENTED_EDGE('',*,*,#347,.F.);
#455=ORIENTED_EDGE('',*,*,#340,.T.);
#456=ORIENTED_EDGE('',*,*,#336,.T.);
#457=ORIENTED_EDGE('',*,*,#341,.F.);
#458=ORIENTED_EDGE('',*,*,#327,.F.);
#459=ORIENTED_EDGE('',*,*,#316,.T.);
#460=ORIENTED_EDGE('',*,*,#319,.T.);
#461=ORIENTED_EDGE('',*,*,#321,.T.);
#462=ORIENTED_EDGE('',*,*,#324,.T.);
#463=ORIENTED_EDGE('',*,*,#348,.F.);
#464=ORIENTED_EDGE('',*,*,#349,.T.);
#465=ORIENTED_EDGE('',*,*,#350,.T.);
#466=ORIENTED_EDGE('',*,*,#351,.T.);
#467=ORIENTED_EDGE('',*,*,#352,.T.);
#468=ORIENTED_EDGE('',*,*,#352,.F.);
#469=ORIENTED_EDGE('',*,*,#353,.T.);
#470=ORIENTED_EDGE('',*,*,#354,.T.);
#471=ORIENTED_EDGE('',*,*,#353,.F.);
#472=ORIENTED_EDGE('',*,*,#351,.F.);
#473=ORIENTED_EDGE('',*,*,#355,.T.);
#474=ORIENTED_EDGE('',*,*,#356,.T.);
#475=ORIENTED_EDGE('',*,*,#355,.F.);
#476=ORIENTED_EDGE('',*,*,#350,.F.);
#477=ORIENTED_EDGE('',*,*,#357,.T.);
#478=ORIENTED_EDGE('',*,*,#358,.T.);
#479=ORIENTED_EDGE('',*,*,#357,.F.);
#480=ORIENTED_EDGE('',*,*,#349,.F.);
#481=ORIENTED_EDGE('',*,*,#359,.T.);
#482=ORIENTED_EDGE('',*,*,#360,.T.);
#483=ORIENTED_EDGE('',*,*,#359,.F.);
#484=ORIENTED_EDGE('',*,*,#347,.T.);
#485=ORIENTED_EDGE('',*,*,#361,.T.);
#486=ORIENTED_EDGE('',*,*,#348,.T.);
#487=ORIENTED_EDGE('',*,*,#361,.F.);
#488=ORIENTED_EDGE('',*,*,#339,.F.);
#489=ORIENTED_EDGE('',*,*,#346,.T.);
#490=ORIENTED_EDGE('',*,*,#342,.T.);
#491=ORIENTED_EDGE('',*,*,#329,.F.);
#492=ORIENTED_EDGE('',*,*,#297,.F.);
#493=ORIENTED_EDGE('',*,*,#333,.F.);
#494=ORIENTED_EDGE('',*,*,#354,.F.);
#495=ORIENTED_EDGE('',*,*,#356,.F.);
#496=ORIENTED_EDGE('',*,*,#337,.F.);
#497=ORIENTED_EDGE('',*,*,#309,.T.);
#498=ORIENTED_EDGE('',*,*,#306,.T.);
#499=ORIENTED_EDGE('',*,*,#313,.T.);
#500=ORIENTED_EDGE('',*,*,#344,.T.);
#501=ORIENTED_EDGE('',*,*,#345,.F.);
#502=ORIENTED_EDGE('',*,*,#360,.F.);
#503=ORIENTED_EDGE('',*,*,#358,.F.);
#504=PLANE('',#572);
#505=PLANE('',#573);
#506=PLANE('',#574);
#507=PLANE('',#575);
#508=PLANE('',#576);
#509=PLANE('',#577);
#510=PLANE('',#578);
#511=PLANE('',#579);
#512=PLANE('',#580);
#513=PLANE('',#593);
#514=PLANE('',#594);
#515=PLANE('',#595);
#516=PLANE('',#596);
#517=PLANE('',#598);
#518=PLANE('',#601);
#519=PLANE('',#603);
#520=PLANE('',#605);
#521=PLANE('',#607);
#522=PLANE('',#609);
#523=PLANE('',#620);
#524=PLANE('',#621);
#525=ADVANCED_FACE('',(#67),#504,.F.);
#526=ADVANCED_FACE('',(#68),#505,.F.);
#527=ADVANCED_FACE('',(#69),#506,.F.);
#528=ADVANCED_FACE('',(#70),#507,.F.);
#529=ADVANCED_FACE('',(#71),#508,.F.);
#530=ADVANCED_FACE('',(#72),#509,.F.);
#531=ADVANCED_FACE('',(#73),#510,.F.);
#532=ADVANCED_FACE('',(#74),#511,.F.);
#533=ADVANCED_FACE('',(#75,#49,#50),#512,.T.);
#534=ADVANCED_FACE('',(#76),#39,.F.);
#535=ADVANCED_FACE('',(#77),#40,.F.);
#536=ADVANCED_FACE('',(#78),#41,.F.);
#537=ADVANCED_FACE('',(#79),#42,.F.);
#538=ADVANCED_FACE('',(#80),#513,.T.);
#539=ADVANCED_FACE('',(#81,#51,#52),#514,.T.);
#540=ADVANCED_FACE('',(#82),#515,.T.);
#541=ADVANCED_FACE('',(#83),#516,.F.);
#542=ADVANCED_FACE('',(#84),#517,.T.);
#543=ADVANCED_FACE('',(#85,#53),#43,.F.);
#544=ADVANCED_FACE('',(#86,#54,#55,#56,#57,#58),#518,.F.);
#545=ADVANCED_FACE('',(#87),#519,.T.);
#546=ADVANCED_FACE('',(#88),#520,.T.);
#547=ADVANCED_FACE('',(#89),#521,.T.);
#548=ADVANCED_FACE('',(#90),#522,.T.);
#549=ADVANCED_FACE('',(#91),#44,.F.);
#550=ADVANCED_FACE('',(#92),#45,.F.);
#551=ADVANCED_FACE('',(#93),#46,.F.);
#552=ADVANCED_FACE('',(#94),#47,.F.);
#553=ADVANCED_FACE('',(#95),#48,.F.);
#554=ADVANCED_FACE('',(#96,#59,#60),#523,.F.);
#555=ADVANCED_FACE('',(#97,#61,#62),#524,.F.);
#556=CLOSED_SHELL('',(#525,#526,#527,#528,#529,#530,#531,#532,#533,#534,
#535,#536,#537,#538,#539,#540,#541,#542,#543,#544,#545,#546,#547,#548,#549,
#550,#551,#552,#553,#554,#555));
#557=DERIVED_UNIT_ELEMENT(#559,1.);
#558=DERIVED_UNIT_ELEMENT(#980,-3.);
#559=(
MASS_UNIT()
NAMED_UNIT(*)
SI_UNIT(.KILO.,.GRAM.)
);
#560=DERIVED_UNIT((#557,#558));
#561=MEASURE_REPRESENTATION_ITEM('density measure',
POSITIVE_RATIO_MEASURE(0.),#560);
#562=PROPERTY_DEFINITION_REPRESENTATION(#567,#564);
#563=PROPERTY_DEFINITION_REPRESENTATION(#568,#565);
#564=REPRESENTATION('material name',(#566),#977);
#565=REPRESENTATION('density',(#561),#977);
#566=DESCRIPTIVE_REPRESENTATION_ITEM('PTC_SYSTEM_MTRL_PROPS',
'PTC_SYSTEM_MTRL_PROPS');
#567=PROPERTY_DEFINITION('material property','material name',#997);
#568=PROPERTY_DEFINITION('material property','density of part',#997);
#569=AXIS2_PLACEMENT_3D('',#785,#624,#625);
#570=AXIS2_PLACEMENT_3D('',#786,#626,#627);
#571=AXIS2_PLACEMENT_3D('',#787,#628,#629);
#572=AXIS2_PLACEMENT_3D('',#788,#630,#631);
#573=AXIS2_PLACEMENT_3D('',#795,#635,#636);
#574=AXIS2_PLACEMENT_3D('',#802,#640,#641);
#575=AXIS2_PLACEMENT_3D('',#805,#644,#645);
#576=AXIS2_PLACEMENT_3D('',#807,#647,#648);
#577=AXIS2_PLACEMENT_3D('',#816,#653,#654);
#578=AXIS2_PLACEMENT_3D('',#820,#657,#658);
#579=AXIS2_PLACEMENT_3D('',#824,#661,#662);
#580=AXIS2_PLACEMENT_3D('',#826,#664,#665);
#581=AXIS2_PLACEMENT_3D('',#837,#671,#672);
#582=AXIS2_PLACEMENT_3D('',#839,#673,#674);
#583=AXIS2_PLACEMENT_3D('',#840,#675,#676);
#584=AXIS2_PLACEMENT_3D('',#842,#677,#678);
#585=AXIS2_PLACEMENT_3D('',#845,#680,#681);
#586=AXIS2_PLACEMENT_3D('',#846,#682,#683);
#587=AXIS2_PLACEMENT_3D('',#848,#684,#685);
#588=AXIS2_PLACEMENT_3D('',#850,#687,#688);
#589=AXIS2_PLACEMENT_3D('',#852,#689,#690);
#590=AXIS2_PLACEMENT_3D('',#855,#692,#693);
#591=AXIS2_PLACEMENT_3D('',#856,#694,#695);
#592=AXIS2_PLACEMENT_3D('',#858,#696,#697);
#593=AXIS2_PLACEMENT_3D('',#860,#699,#700);
#594=AXIS2_PLACEMENT_3D('',#866,#704,#705);
#595=AXIS2_PLACEMENT_3D('',#876,#711,#712);
#596=AXIS2_PLACEMENT_3D('',#882,#716,#717);
#597=AXIS2_PLACEMENT_3D('',#886,#719,#720);
#598=AXIS2_PLACEMENT_3D('',#889,#723,#724);
#599=AXIS2_PLACEMENT_3D('',#894,#727,#728);
#600=AXIS2_PLACEMENT_3D('',#896,#730,#731);
#601=AXIS2_PLACEMENT_3D('',#934,#734,#735);
#602=AXIS2_PLACEMENT_3D('',#936,#736,#737);
#603=AXIS2_PLACEMENT_3D('',#937,#738,#739);
#604=AXIS2_PLACEMENT_3D('',#939,#740,#741);
#605=AXIS2_PLACEMENT_3D('',#940,#742,#743);
#606=AXIS2_PLACEMENT_3D('',#942,#744,#745);
#607=AXIS2_PLACEMENT_3D('',#943,#746,#747);
#608=AXIS2_PLACEMENT_3D('',#945,#748,#749);
#609=AXIS2_PLACEMENT_3D('',#946,#750,#751);
#610=AXIS2_PLACEMENT_3D('',#948,#752,#753);
#611=AXIS2_PLACEMENT_3D('',#949,#754,#755);
#612=AXIS2_PLACEMENT_3D('',#952,#757,#758);
#613=AXIS2_PLACEMENT_3D('',#953,#759,#760);
#614=AXIS2_PLACEMENT_3D('',#956,#762,#763);
#615=AXIS2_PLACEMENT_3D('',#957,#764,#765);
#616=AXIS2_PLACEMENT_3D('',#960,#767,#768);
#617=AXIS2_PLACEMENT_3D('',#961,#769,#770);
#618=AXIS2_PLACEMENT_3D('',#964,#772,#773);
#619=AXIS2_PLACEMENT_3D('',#965,#774,#775);
#620=AXIS2_PLACEMENT_3D('',#967,#777,#778);
#621=AXIS2_PLACEMENT_3D('',#968,#779,#780);
#622=AXIS2_PLACEMENT_3D('',#969,#781,#782);
#623=AXIS2_PLACEMENT_3D('',#970,#783,#784);
#624=DIRECTION('axis',(0.,0.,1.));
#625=DIRECTION('refdir',(1.,0.,0.));
#626=DIRECTION('axis',(0.,0.,1.));
#627=DIRECTION('refdir',(1.,0.,0.));
#628=DIRECTION('axis',(0.,0.,1.));
#629=DIRECTION('refdir',(1.,0.,0.));
#630=DIRECTION('center_axis',(0.,-1.47176311394125E-14,1.));
#631=DIRECTION('ref_axis',(2.81880708875318E-17,-1.,-1.47176311394125E-14));
#632=DIRECTION('',(-0.642787609686529,-0.766044443118986,-1.12743595502219E-14));
#633=DIRECTION('',(2.81880708875318E-17,-1.,-1.47176311394125E-14));
#634=DIRECTION('',(1.,0.,0.));
#635=DIRECTION('center_axis',(0.,1.47176311394125E-14,-1.));
#636=DIRECTION('ref_axis',(-2.81880708875318E-17,1.,1.47176311394125E-14));
#637=DIRECTION('',(0.642787609686529,0.766044443118986,1.12743595502219E-14));
#638=DIRECTION('',(1.,0.,0.));
#639=DIRECTION('',(-2.81880708875318E-17,1.,1.47176311394125E-14));
#640=DIRECTION('center_axis',(0.,-1.,-7.02008483534471E-15));
#641=DIRECTION('ref_axis',(3.55080456472596E-18,7.02008483534471E-15,-1.));
#642=DIRECTION('',(-4.73316543132607E-30,-3.23279977493644E-30,1.));
#643=DIRECTION('',(3.55080456472596E-18,7.02008483534471E-15,-1.));
#644=DIRECTION('center_axis',(1.,0.,0.));
#645=DIRECTION('ref_axis',(0.,0.,-1.));
#646=DIRECTION('',(0.,0.,1.));
#647=DIRECTION('center_axis',(1.,0.,0.));
#648=DIRECTION('ref_axis',(0.,0.,-1.));
#649=DIRECTION('',(0.,0.,-1.));
#650=DIRECTION('',(2.81880708875318E-17,-1.,-1.47176311394125E-14));
#651=DIRECTION('',(-3.55080456472596E-18,-7.31614430857808E-15,1.));
#652=DIRECTION('',(-2.81880708875318E-17,1.,1.47176311394125E-14));
#653=DIRECTION('center_axis',(0.,1.47176311394125E-14,-1.));
#654=DIRECTION('ref_axis',(-2.81880708875318E-17,1.,1.47176311394125E-14));
#655=DIRECTION('',(-0.642787609686539,0.766044443118978,1.12743595502217E-14));
#656=DIRECTION('',(1.,0.,0.));
#657=DIRECTION('center_axis',(0.,1.,7.31614430857808E-15));
#658=DIRECTION('ref_axis',(-3.55080456472596E-18,-7.31614430857808E-15,
1.));
#659=DIRECTION('',(-4.73316543132607E-30,-3.23279977493644E-30,1.));
#660=DIRECTION('',(1.,0.,0.));
#661=DIRECTION('center_axis',(0.,-1.47176311394125E-14,1.));
#662=DIRECTION('ref_axis',(2.81880708875318E-17,-1.,-1.47176311394125E-14));
#663=DIRECTION('',(0.642787609686539,-0.766044443118978,-1.12743595502217E-14));
#664=DIRECTION('center_axis',(-0.766044443118978,-0.642787609686539,0.));
#665=DIRECTION('ref_axis',(0.642787609686539,-0.766044443118978,-1.08799768452919E-17));
#666=DIRECTION('',(-4.73316543132607E-30,-3.23279977493644E-30,1.));
#667=DIRECTION('',(-0.642787609686539,0.766044443118978,1.08799768452919E-17));
#668=DIRECTION('',(0.,0.,1.));
#669=DIRECTION('',(0.642787609686539,-0.766044443118978,-1.08799768452919E-17));
#670=DIRECTION('',(-4.73316543132607E-30,-3.23279977493644E-30,1.));
#671=DIRECTION('center_axis',(0.766044443118978,0.642787609686539,0.));
#672=DIRECTION('ref_axis',(0.642787609686539,-0.766044443118978,-1.12743595502217E-14));
#673=DIRECTION('center_axis',(0.766044443118978,0.642787609686539,0.));
#674=DIRECTION('ref_axis',(0.642787609686539,-0.766044443118978,-1.12743595502217E-14));
#675=DIRECTION('center_axis',(-1.,0.,0.));
#676=DIRECTION('ref_axis',(0.,-1.,-1.47176311394125E-14));
#677=DIRECTION('center_axis',(-1.,-4.93038065763132E-32,-4.73316543132607E-30));
#678=DIRECTION('ref_axis',(0.,-1.,-1.47176311394125E-14));
#679=DIRECTION('',(-1.,0.,0.));
#680=DIRECTION('center_axis',(0.766044443118987,-0.642787609686529,0.));
#681=DIRECTION('ref_axis',(-0.642787609686529,-0.766044443118986,-1.12743595502219E-14));
#682=DIRECTION('center_axis',(-1.,0.,0.));
#683=DIRECTION('ref_axis',(0.,-1.,-1.47176311394125E-14));
#684=DIRECTION('center_axis',(-1.,-4.93038065763132E-32,-4.73316543132607E-30));
#685=DIRECTION('ref_axis',(0.,-1.,-1.47176311394125E-14));
#686=DIRECTION('',(-1.,0.,0.));
#687=DIRECTION('center_axis',(-1.,0.,0.));
#688=DIRECTION('ref_axis',(0.,-1.,-1.47176311394125E-14));
#689=DIRECTION('center_axis',(-1.,-4.93038065763132E-32,-4.73316543132607E-30));
#690=DIRECTION('ref_axis',(0.,-1.,-1.47176311394125E-14));
#691=DIRECTION('',(-1.,0.,0.));
#692=DIRECTION('center_axis',(0.766044443118987,-0.642787609686529,0.));
#693=DIRECTION('ref_axis',(-0.642787609686529,-0.766044443118986,-1.12743595502219E-14));
#694=DIRECTION('center_axis',(-1.,0.,0.));
#695=DIRECTION('ref_axis',(0.,-1.,-1.47176311394125E-14));
#696=DIRECTION('center_axis',(-1.,-4.93038065763132E-32,-4.73316543132607E-30));
#697=DIRECTION('ref_axis',(0.,-1.,-1.47176311394125E-14));
#698=DIRECTION('',(-1.,0.,0.));
#699=DIRECTION('center_axis',(-1.69519088697456E-17,-1.,0.));
#700=DIRECTION('ref_axis',(1.,-1.69519088697456E-17,4.24498406661202E-23));
#701=DIRECTION('',(-1.,1.69519088697456E-17,-4.24498406661202E-23));
#702=DIRECTION('',(0.,0.,1.));
#703=DIRECTION('',(1.,-1.69519088697456E-17,4.24498406661202E-23));
#704=DIRECTION('center_axis',(-0.766044443118987,0.642787609686529,0.));
#705=DIRECTION('ref_axis',(-0.642787609686529,-0.766044443118986,-1.08800314177439E-17));
#706=DIRECTION('',(-4.73316543132607E-30,-3.23279977493644E-30,1.));
#707=DIRECTION('',(-0.642787609686529,-0.766044443118986,-1.08800314177439E-17));
#708=DIRECTION('',(0.,0.,1.));
#709=DIRECTION('',(-0.642787609686529,-0.766044443118986,-1.08800314177439E-17));
#710=DIRECTION('',(-4.73316543132607E-30,-3.23279977493644E-30,1.));
#711=DIRECTION('center_axis',(-3.05311331771918E-16,1.,0.));
#712=DIRECTION('ref_axis',(-1.,-3.05311331771918E-16,-4.24498406661202E-23));
#713=DIRECTION('',(-1.,-3.05311331771918E-16,-4.24498406661202E-23));
#714=DIRECTION('',(-1.,-3.05311331771918E-16,-4.24498406661202E-23));
#715=DIRECTION('',(0.,0.,1.));
#716=DIRECTION('center_axis',(-4.73316543132607E-30,-3.23279977493644E-30,
1.));
#717=DIRECTION('ref_axis',(1.,4.93038065763132E-32,4.73316543132607E-30));
#718=DIRECTION('',(-4.93038065763132E-32,1.,3.23279977493644E-30));
#719=DIRECTION('center_axis',(-4.73316543132607E-30,-3.23279977493644E-30,
1.));
#720=DIRECTION('ref_axis',(4.93038065763132E-32,-1.,-3.23279977493644E-30));
#721=DIRECTION('',(-4.93038065763132E-32,1.,3.23279977493644E-30));
#722=DIRECTION('',(-1.93460504679662E-16,1.,1.42028367012608E-17));
#723=DIRECTION('center_axis',(-4.73316543132607E-30,-3.23279977493644E-30,
1.));
#724=DIRECTION('ref_axis',(1.,4.93038065763132E-32,4.73316543132607E-30));
#725=DIRECTION('',(-3.05311331776783E-16,1.,1.42028367012476E-17));
#726=DIRECTION('',(-4.93038065763132E-32,1.,3.23279977493644E-30));
#727=DIRECTION('center_axis',(4.73316543132607E-30,3.23279977493644E-30,
-1.));
#728=DIRECTION('ref_axis',(-4.93038065763132E-32,1.,3.23279977493644E-30));
#729=DIRECTION('',(-4.93038065763132E-32,1.,3.23279977493644E-30));
#730=DIRECTION('center_axis',(-4.73316543132607E-30,-3.23279977493644E-30,
1.));
#731=DIRECTION('ref_axis',(1.,4.93038065763132E-32,4.73316543132607E-30));
#732=DIRECTION('',(-4.73316543132607E-30,-3.23279977493644E-30,1.));
#733=DIRECTION('',(-4.73316543132607E-30,-3.23279977493644E-30,1.));
#734=DIRECTION('center_axis',(-1.,-4.93038065763132E-32,-4.73316543132607E-30));
#735=DIRECTION('ref_axis',(-4.73316543132607E-30,-3.23279977493644E-30,
1.));
#736=DIRECTION('center_axis',(1.,4.93038065763132E-32,4.73316543132607E-30));
#737=DIRECTION('ref_axis',(-4.93038065763132E-32,1.,3.23279977493644E-30));
#738=DIRECTION('center_axis',(-1.,-4.93038065763132E-32,-4.73316543132607E-30));
#739=DIRECTION('ref_axis',(-4.73316543132607E-30,-3.23279977493644E-30,
1.));
#740=DIRECTION('center_axis',(-1.,-4.93038065763132E-32,-4.73316543132607E-30));
#741=DIRECTION('ref_axis',(4.93038065763132E-32,-1.,-3.23279977493644E-30));
#742=DIRECTION('center_axis',(-1.,-4.93038065763132E-32,-4.73316543132607E-30));
#743=DIRECTION('ref_axis',(-4.73316543132607E-30,-3.23279977493644E-30,
1.));
#744=DIRECTION('center_axis',(-1.,-4.93038065763132E-32,-4.73316543132607E-30));
#745=DIRECTION('ref_axis',(4.93038065763132E-32,-1.,-3.23279977493644E-30));
#746=DIRECTION('center_axis',(-1.,-4.93038065763132E-32,-4.73316543132607E-30));
#747=DIRECTION('ref_axis',(-4.73316543132607E-30,-3.23279977493644E-30,
1.));
#748=DIRECTION('center_axis',(-1.,-4.93038065763132E-32,-4.73316543132607E-30));
#749=DIRECTION('ref_axis',(4.93038065763132E-32,-1.,-3.23279977493644E-30));
#750=DIRECTION('center_axis',(-1.,-4.93038065763132E-32,-4.73316543132607E-30));
#751=DIRECTION('ref_axis',(-4.73316543132607E-30,-3.23279977493644E-30,
1.));
#752=DIRECTION('center_axis',(-1.,-4.93038065763132E-32,-4.73316543132607E-30));
#753=DIRECTION('ref_axis',(4.93038065763132E-32,-1.,-3.23279977493644E-30));
#754=DIRECTION('center_axis',(-1.,-4.93038065763132E-32,-4.73316543132607E-30));
#755=DIRECTION('ref_axis',(4.93038065763132E-32,-1.,-3.23279977493644E-30));
#756=DIRECTION('',(-1.,-4.93038065763132E-32,-4.73316543132607E-30));
#757=DIRECTION('center_axis',(-1.,-4.93038065763132E-32,-4.73316543132607E-30));
#758=DIRECTION('ref_axis',(4.93038065763132E-32,-1.,-3.23279977493644E-30));
#759=DIRECTION('center_axis',(-1.,-4.93038065763132E-32,-4.73316543132607E-30));
#760=DIRECTION('ref_axis',(4.93038065763132E-32,-1.,-3.23279977493644E-30));
#761=DIRECTION('',(-1.,-4.93038065763132E-32,-4.73316543132607E-30));
#762=DIRECTION('center_axis',(-1.,-4.93038065763132E-32,-4.73316543132607E-30));
#763=DIRECTION('ref_axis',(4.93038065763132E-32,-1.,-3.23279977493644E-30));
#764=DIRECTION('center_axis',(-1.,-4.93038065763132E-32,-4.73316543132607E-30));
#765=DIRECTION('ref_axis',(4.93038065763132E-32,-1.,-3.23279977493644E-30));
#766=DIRECTION('',(-1.,-4.93038065763132E-32,-4.73316543132607E-30));
#767=DIRECTION('center_axis',(-1.,-4.93038065763132E-32,-4.73316543132607E-30));
#768=DIRECTION('ref_axis',(4.93038065763132E-32,-1.,-3.23279977493644E-30));
#769=DIRECTION('center_axis',(-1.,-4.93038065763132E-32,-4.73316543132607E-30));
#770=DIRECTION('ref_axis',(4.93038065763132E-32,-1.,-3.23279977493644E-30));
#771=DIRECTION('',(-1.,-4.93038065763132E-32,-4.73316543132607E-30));
#772=DIRECTION('center_axis',(-1.,-4.93038065763132E-32,-4.73316543132607E-30));
#773=DIRECTION('ref_axis',(4.93038065763132E-32,-1.,-3.23279977493644E-30));
#774=DIRECTION('center_axis',(1.,4.93038065763132E-32,4.73316543132607E-30));
#775=DIRECTION('ref_axis',(-4.93038065763132E-32,1.,3.23279977493644E-30));
#776=DIRECTION('',(1.,4.93038065763132E-32,4.73316543132607E-30));
#777=DIRECTION('center_axis',(1.,4.93038065763132E-32,4.73316543132607E-30));
#778=DIRECTION('ref_axis',(4.73316543132607E-30,3.23279977493644E-30,-1.));
#779=DIRECTION('center_axis',(1.,4.93038065763132E-32,4.73316543132607E-30));
#780=DIRECTION('ref_axis',(4.73316543132607E-30,3.23279977493644E-30,-1.));
#781=DIRECTION('',(0.,0.,1.));
#782=DIRECTION('',(1.,0.,0.));
#783=DIRECTION('',(1.47034283027111E-14,0.999999999999999,5.29781839057873E-15));
#784=DIRECTION('',(-2.77123260884464E-16,-5.29426758601415E-15,0.999999999999998));
#785=CARTESIAN_POINT('',(0.,0.,0.));
#786=CARTESIAN_POINT('',(0.,0.,0.));
#787=CARTESIAN_POINT('',(0.,0.,0.));
#788=CARTESIAN_POINT('Origin',(4.65349369967833E-13,73.4999999999995,40.0000000000021));
#789=CARTESIAN_POINT('',(28.0000000000005,73.3691005926385,40.0000000000021));
#790=CARTESIAN_POINT('',(4.66293670342566E-13,39.9999999999994,40.0000000000016));
#791=CARTESIAN_POINT('',(22.3026837536967,66.5793034879604,40.000000000002));
#792=CARTESIAN_POINT('',(28.0000000000005,39.9999999999994,40.0000000000016));
#793=CARTESIAN_POINT('',(28.0000000000005,39.9999999999994,40.0000000000016));
#794=CARTESIAN_POINT('',(4.66293670342566E-13,39.9999999999994,40.0000000000016));
#795=CARTESIAN_POINT('Origin',(4.62797078618797E-13,39.9999999999996,10.0000000000016));
#796=CARTESIAN_POINT('',(4.61852778244065E-13,39.9999999999996,10.0000000000016));
#797=CARTESIAN_POINT('',(28.0000000000005,73.3691005926385,10.0000000000021));
#798=CARTESIAN_POINT('',(14.0549188222196,56.7499999999998,10.0000000000018));
#799=CARTESIAN_POINT('',(28.0000000000005,39.9999999999996,10.0000000000016));
#800=CARTESIAN_POINT('',(4.61852778244065E-13,39.9999999999996,10.0000000000016));
#801=CARTESIAN_POINT('',(28.0000000000005,73.4999999999999,10.0000000000021));
#802=CARTESIAN_POINT('Origin',(4.61746254107123E-13,39.9999999999994,40.0000000000016));
#803=CARTESIAN_POINT('',(-1.84889274661175E-30,40.,1.68561645873377E-28));
#804=CARTESIAN_POINT('',(28.0000000000005,39.9999999999996,10.0000000000016));
#805=CARTESIAN_POINT('Origin',(28.0000000000005,56.7499999999995,25.0000000000018));
#806=CARTESIAN_POINT('',(28.0000000000005,73.3691005926385,12.5000000000009));
#807=CARTESIAN_POINT('Origin',(28.0000000000005,-51.7500000000001,25.0000000000002));
#808=CARTESIAN_POINT('',(28.0000000000005,-68.3691005926383,40.));
#809=CARTESIAN_POINT('',(28.0000000000005,-68.3691005926383,9.99999999999999));
#810=CARTESIAN_POINT('',(28.0000000000005,-68.3691005926383,12.5000000000001));
#811=CARTESIAN_POINT('',(28.0000000000005,-35.0000000000001,40.0000000000005));
#812=CARTESIAN_POINT('',(28.0000000000005,-35.0000000000001,40.0000000000005));
#813=CARTESIAN_POINT('',(28.0000000000005,-34.9999999999999,10.0000000000005));
#814=CARTESIAN_POINT('',(28.0000000000005,-34.9999999999999,10.0000000000005));
#815=CARTESIAN_POINT('',(28.0000000000005,-68.5000000000001,9.99999999999998));
#816=CARTESIAN_POINT('Origin',(4.66293670342566E-13,-68.5000000000001,9.99999999999998));
#817=CARTESIAN_POINT('',(4.61852778244065E-13,-34.9999999999999,10.0000000000005));
#818=CARTESIAN_POINT('',(8.24776493147754,-44.8293034879608,10.0000000000003));
#819=CARTESIAN_POINT('',(4.61852778244065E-13,-34.9999999999999,10.0000000000005));
#820=CARTESIAN_POINT('Origin',(4.61852778244065E-13,-34.9999999999999,10.0000000000005));
#821=CARTESIAN_POINT('',(4.66293670342566E-13,-35.0000000000001,40.0000000000005));
#822=CARTESIAN_POINT('',(1.84889274661175E-30,-35.,-7.38983372468556E-29));
#823=CARTESIAN_POINT('',(4.66293670342566E-13,-35.0000000000001,40.0000000000005));
#824=CARTESIAN_POINT('Origin',(4.66293670342566E-13,-35.0000000000001,40.0000000000005));
#825=CARTESIAN_POINT('',(4.23873458534079E-13,-35.0000000000004,40.0000000000005));
#826=CARTESIAN_POINT('Origin',(2.30926389122033E-13,-35.0000000000001,-5.70764032489773E-16));
#827=CARTESIAN_POINT('',(1.84889274661175E-30,-35.,-7.38983372468556E-29));
#828=CARTESIAN_POINT('',(1.84889274661175E-30,-35.,-7.38983372468556E-29));
#829=CARTESIAN_POINT('',(28.1098376444389,-68.4999999999999,-1.04655786872372E-15));
#830=CARTESIAN_POINT('',(28.1098376444389,-68.4999999999999,-1.04655786872372E-15));
#831=CARTESIAN_POINT('',(28.1098376444389,-68.4999999999999,50.));
#832=CARTESIAN_POINT('',(28.1098376444389,-68.4999999999999,-1.04655786872372E-15));
#833=CARTESIAN_POINT('',(-2.34809378819692E-28,-35.,50.));
#834=CARTESIAN_POINT('',(28.1098376444389,-68.4999999999999,50.));
#835=CARTESIAN_POINT('',(1.84889274661175E-30,-35.,-7.38983372468556E-29));
#836=CARTESIAN_POINT('',(22.6137350602278,-61.95,5.00000000000009));
#837=CARTESIAN_POINT('Origin',(23.9143394885526,-63.5,5.00000000000007));
#838=CARTESIAN_POINT('',(22.6137350602283,-61.9500000000006,45.0000000000001));
#839=CARTESIAN_POINT('Origin',(23.9143394885531,-63.5000000000006,45.0000000000001));
#840=CARTESIAN_POINT('Origin',(35.,68.4999999999994,45.000000000002));
#841=CARTESIAN_POINT('',(35.,70.0499999999994,45.000000000002));
#842=CARTESIAN_POINT('Origin',(35.,68.4999999999994,45.000000000002));
#843=CARTESIAN_POINT('',(25.2149439168768,70.0499999999994,45.000000000002));
#844=CARTESIAN_POINT('',(35.,70.0499999999994,45.000000000002));
#845=CARTESIAN_POINT('Origin',(23.914339488552,68.4999999999994,45.000000000002));
#846=CARTESIAN_POINT('Origin',(35.,-63.5000000000006,45.0000000000001));
#847=CARTESIAN_POINT('',(35.,-61.9500000000006,45.0000000000001));
#848=CARTESIAN_POINT('Origin',(35.,-63.5000000000006,45.0000000000001));
#849=CARTESIAN_POINT('',(35.,-61.9500000000006,45.0000000000001));
#850=CARTESIAN_POINT('Origin',(35.,68.5,5.00000000000201));
#851=CARTESIAN_POINT('',(35.,70.05,5.00000000000203));
#852=CARTESIAN_POINT('Origin',(35.,68.5,5.00000000000201));
#853=CARTESIAN_POINT('',(25.2149439168773,70.05,5.00000000000203));
#854=CARTESIAN_POINT('',(35.,70.05,5.00000000000203));
#855=CARTESIAN_POINT('Origin',(23.9143394885525,68.5,5.00000000000201));
#856=CARTESIAN_POINT('Origin',(35.,-63.5,5.00000000000007));
#857=CARTESIAN_POINT('',(35.,-61.95,5.00000000000009));
#858=CARTESIAN_POINT('Origin',(35.,-63.5,5.00000000000007));
#859=CARTESIAN_POINT('',(35.,-61.95,5.00000000000009));
#860=CARTESIAN_POINT('Origin',(28.1098376444389,-68.4999999999999,-1.04655786872374E-15));
#861=CARTESIAN_POINT('',(35.,-68.4999999999999,-1.04655757623745E-15));
#862=CARTESIAN_POINT('',(35.,-68.4999999999999,-1.04655757623745E-15));
#863=CARTESIAN_POINT('',(35.,-68.4999999999999,50.));
#864=CARTESIAN_POINT('',(35.,-68.4999999999999,-1.04655757623745E-15));
#865=CARTESIAN_POINT('',(35.,-68.4999999999999,50.));
#866=CARTESIAN_POINT('Origin',(28.1098376444389,73.5000000000001,9.70244942853434E-16));
#867=CARTESIAN_POINT('',(-2.38507164312915E-28,40.,50.));
#868=CARTESIAN_POINT('',(-1.84889274661175E-30,40.,1.68561645873377E-28));
#869=CARTESIAN_POINT('',(28.1098376444389,73.5000000000001,50.));
#870=CARTESIAN_POINT('',(28.1098376444389,73.5000000000001,50.));
#871=CARTESIAN_POINT('',(28.1098376444389,73.5000000000001,9.70244942853434E-16));
#872=CARTESIAN_POINT('',(28.1098376444389,73.5000000000001,9.70244942853434E-16));
#873=CARTESIAN_POINT('',(-1.84889274661175E-30,40.,1.68561645873377E-28));
#874=CARTESIAN_POINT('',(28.1098376444389,73.5000000000001,9.70244942853434E-16));
#875=CARTESIAN_POINT('',(-1.84889274661175E-30,40.,1.68561645873377E-28));
#876=CARTESIAN_POINT('Origin',(35.,73.5000000000001,9.70245235339329E-16));
#877=CARTESIAN_POINT('',(35.,73.5000000000001,9.70245235339329E-16));
#878=CARTESIAN_POINT('',(35.,73.5000000000001,9.70245235339329E-16));
#879=CARTESIAN_POINT('',(35.,73.5000000000001,50.));
#880=CARTESIAN_POINT('',(35.,73.5000000000001,50.));
#881=CARTESIAN_POINT('',(35.,73.5000000000001,9.70245235339329E-16));
#882=CARTESIAN_POINT('Origin',(-9.95682444457783E-59,2.49999999999999,4.73316543132607E-29));
#883=CARTESIAN_POINT('',(1.1956173094756E-30,-21.75,-3.10637402289479E-29));
#884=CARTESIAN_POINT('',(1.84889274661175E-30,-35.,-7.38983372468556E-29));
#885=CARTESIAN_POINT('',(-1.1956173094756E-30,26.75,1.25727048855469E-28));
#886=CARTESIAN_POINT('Origin',(-9.95682444457783E-59,2.49999999999999,4.73316543132607E-29));
#887=CARTESIAN_POINT('',(-1.1956173094756E-30,26.75,1.25727048855469E-28));
#888=CARTESIAN_POINT('',(35.,-68.4999999999999,-1.04655757623745E-15));
#889=CARTESIAN_POINT('Origin',(-2.36658271566304E-28,2.49999999999999,50.));
#890=CARTESIAN_POINT('',(35.,73.5000000000001,50.));
#891=CARTESIAN_POINT('',(7.42442121983059E-15,26.75,50.));
#892=CARTESIAN_POINT('',(-2.37853888875779E-28,26.75,50.));
#893=CARTESIAN_POINT('',(-2.35462654256828E-28,-21.75,50.));
#894=CARTESIAN_POINT('Origin',(-2.36658271566304E-28,2.49999999999999,50.));
#895=CARTESIAN_POINT('',(-2.34809378819692E-28,-35.,50.));
#896=CARTESIAN_POINT('Origin',(-9.95682444457783E-59,2.49999999999999,4.73316543132607E-29));
#897=CARTESIAN_POINT('',(-4.4546527318985E-15,-21.75,-3.10637402289479E-29));
#898=CARTESIAN_POINT('',(7.42442121983083E-15,26.75,1.25727048855469E-28));
#899=CARTESIAN_POINT('',(22.0921366101154,-7.50000000000002,20.));
#900=CARTESIAN_POINT('Ctrl Pts',(22.0921366101154,12.5,20.));
#901=CARTESIAN_POINT('Ctrl Pts',(22.0921366101154,12.5,18.7269763515106));
#902=CARTESIAN_POINT('Ctrl Pts',(22.2138239301412,12.2424622863379,17.38127614259));
#903=CARTESIAN_POINT('Ctrl Pts',(22.6356325403879,11.2176637776558,14.9230272871464));
#904=CARTESIAN_POINT('Ctrl Pts',(22.9279313918122,10.4510209290121,13.8088853052811));
#905=CARTESIAN_POINT('Ctrl Pts',(23.4641073106774,8.69213098827759,12.0499953645466));
#906=CARTESIAN_POINT('Ctrl Pts',(23.7451478360704,7.57760869223183,11.2825843390532));
#907=CARTESIAN_POINT('Ctrl Pts',(24.1404425645926,5.1178595833138,10.2571944266259));
#908=CARTESIAN_POINT('Ctrl Pts',(24.25,3.77155338182528,10.));
#909=CARTESIAN_POINT('Ctrl Pts',(24.25,1.2284466181747,10.));
#910=CARTESIAN_POINT('Ctrl Pts',(24.1404425645926,-0.117859583313826,10.2571944266259));
#911=CARTESIAN_POINT('Ctrl Pts',(23.7451478360704,-2.57760869223185,11.2825843390533));
#912=CARTESIAN_POINT('Ctrl Pts',(23.4641073106774,-3.69213098827761,12.0499953645466));
#913=CARTESIAN_POINT('Ctrl Pts',(22.9279313918122,-5.4510209290121,13.8088853052811));
#914=CARTESIAN_POINT('Ctrl Pts',(22.6356325403879,-6.21766377765581,14.9230272871464));
#915=CARTESIAN_POINT('Ctrl Pts',(22.2138239301412,-7.24246228633794,17.38127614259));
#916=CARTESIAN_POINT('Ctrl Pts',(22.0921366101154,-7.50000000000001,18.7269763515106));
#917=CARTESIAN_POINT('Ctrl Pts',(22.0921366101154,-7.50000000000001,21.2730236484894));
#918=CARTESIAN_POINT('Ctrl Pts',(22.2138239301412,-7.24246228633794,22.61872385741));
#919=CARTESIAN_POINT('Ctrl Pts',(22.6356325403879,-6.21766377765581,25.0769727128536));
#920=CARTESIAN_POINT('Ctrl Pts',(22.9279313918122,-5.4510209290121,26.1911146947189));
#921=CARTESIAN_POINT('Ctrl Pts',(23.4641073106774,-3.69213098827761,27.9500046354534));
#922=CARTESIAN_POINT('Ctrl Pts',(23.7451478360704,-2.57760869223185,28.7174156609468));
#923=CARTESIAN_POINT('Ctrl Pts',(24.1404425645926,-0.117859583313822,29.7428055733741));
#924=CARTESIAN_POINT('Ctrl Pts',(24.25,1.2284466181747,30.));
#925=CARTESIAN_POINT('Ctrl Pts',(24.25,3.77155338182528,30.));
#926=CARTESIAN_POINT('Ctrl Pts',(24.1404425645926,5.11785958331381,29.7428055733741));
#927=CARTESIAN_POINT('Ctrl Pts',(23.7451478360704,7.57760869223183,28.7174156609467));
#928=CARTESIAN_POINT('Ctrl Pts',(23.4641073106774,8.69213098827759,27.9500046354534));
#929=CARTESIAN_POINT('Ctrl Pts',(22.9279313918122,10.4510209290121,26.1911146947189));
#930=CARTESIAN_POINT('Ctrl Pts',(22.6356325403879,11.2176637776558,25.0769727128536));
#931=CARTESIAN_POINT('Ctrl Pts',(22.2138239301412,12.2424622863379,22.61872385741));
#932=CARTESIAN_POINT('Ctrl Pts',(22.0921366101154,12.5,21.2730236484894));
#933=CARTESIAN_POINT('Ctrl Pts',(22.0921366101154,12.5,20.));
#934=CARTESIAN_POINT('Origin',(35.,-35.,9.17624528495569E-29));
#935=CARTESIAN_POINT('',(35.,-7.50000000000001,20.));
#936=CARTESIAN_POINT('Origin',(35.,2.49999999999999,20.));
#937=CARTESIAN_POINT('Origin',(20.,2.49999999999999,1.41994962939782E-28));
#938=CARTESIAN_POINT('',(20.,-24.3,10.));
#939=CARTESIAN_POINT('Origin',(20.,-27.5,10.));
#940=CARTESIAN_POINT('Origin',(20.,2.49999999999999,1.41994962939782E-28));
#941=CARTESIAN_POINT('',(20.,-24.3,40.));
#942=CARTESIAN_POINT('Origin',(20.,-27.5,40.));
#943=CARTESIAN_POINT('Origin',(20.,2.49999999999999,1.41994962939782E-28));
#944=CARTESIAN_POINT('',(20.,35.7,10.));
#945=CARTESIAN_POINT('Origin',(20.,32.5,10.));
#946=CARTESIAN_POINT('Origin',(20.,2.49999999999999,1.41994962939782E-28));
#947=CARTESIAN_POINT('',(20.,35.7,40.));
#948=CARTESIAN_POINT('Origin',(20.,32.5,40.));
#949=CARTESIAN_POINT('Origin',(-1.90805731450332E-28,32.5,40.));
#950=CARTESIAN_POINT('',(-1.90963503631376E-28,35.7,40.));
#951=CARTESIAN_POINT('',(-1.90963503631376E-28,35.7,40.));
#952=CARTESIAN_POINT('Origin',(-1.90805731450332E-28,32.5,40.));
#953=CARTESIAN_POINT('Origin',(-4.88107685105501E-29,32.5,10.));
#954=CARTESIAN_POINT('',(-4.89685406915943E-29,35.7,10.));
#955=CARTESIAN_POINT('',(-4.89685406915943E-29,35.7,10.));
#956=CARTESIAN_POINT('Origin',(-4.88107685105501E-29,32.5,10.));
#957=CARTESIAN_POINT('Origin',(-1.87847503055753E-28,-27.5,40.));
#958=CARTESIAN_POINT('',(-1.88005275236798E-28,-24.3,40.));
#959=CARTESIAN_POINT('',(-1.88005275236798E-28,-24.3,40.));
#960=CARTESIAN_POINT('Origin',(-1.87847503055753E-28,-27.5,40.));
#961=CARTESIAN_POINT('Origin',(-4.58525401159713E-29,-27.5,10.));
#962=CARTESIAN_POINT('',(-4.60103122970155E-29,-24.3,10.));
#963=CARTESIAN_POINT('',(-4.60103122970155E-29,-24.3,10.));
#964=CARTESIAN_POINT('Origin',(-4.58525401159713E-29,-27.5,10.));
#965=CARTESIAN_POINT('Origin',(35.,2.49999999999999,20.));
#966=CARTESIAN_POINT('',(35.,-7.50000000000001,20.));
#967=CARTESIAN_POINT('Origin',(-9.95682444457783E-59,2.49999999999999,4.73316543132607E-29));
#968=CARTESIAN_POINT('Origin',(-9.95682444457783E-59,2.49999999999999,4.73316543132607E-29));
#969=CARTESIAN_POINT('',(-13.,152.,9.00000000000006));
#970=CARTESIAN_POINT('',(58.4999999999996,-8.08146952135935E-13,-34.9999999999998));
#971=UNCERTAINTY_MEASURE_WITH_UNIT(LENGTH_MEASURE(0.01),#979,
'DISTANCE_ACCURACY_VALUE',
'Maximum model space distance between geometric entities at asserted c
onnectivities');
#972=UNCERTAINTY_MEASURE_WITH_UNIT(LENGTH_MEASURE(0.01),#979,
'DISTANCE_ACCURACY_VALUE',
'Maximum model space distance between geometric entities at asserted c
onnectivities');
#973=UNCERTAINTY_MEASURE_WITH_UNIT(LENGTH_MEASURE(0.01),#979,
'DISTANCE_ACCURACY_VALUE',
'Maximum model space distance between geometric entities at asserted c
onnectivities');
#974=UNCERTAINTY_MEASURE_WITH_UNIT(LENGTH_MEASURE(0.01),#979,
'DISTANCE_ACCURACY_VALUE',
'Maximum model space distance between geometric entities at asserted c
onnectivities');
#975=(
GEOMETRIC_REPRESENTATION_CONTEXT(3)
GLOBAL_UNCERTAINTY_ASSIGNED_CONTEXT((#971))
GLOBAL_UNIT_ASSIGNED_CONTEXT((#979,#981,#982))
REPRESENTATION_CONTEXT('','3D')
);
#976=(
GEOMETRIC_REPRESENTATION_CONTEXT(3)
GLOBAL_UNCERTAINTY_ASSIGNED_CONTEXT((#972))
GLOBAL_UNIT_ASSIGNED_CONTEXT((#979,#981,#982))
REPRESENTATION_CONTEXT('','3D')
);
#977=(
GEOMETRIC_REPRESENTATION_CONTEXT(3)
GLOBAL_UNCERTAINTY_ASSIGNED_CONTEXT((#973))
GLOBAL_UNIT_ASSIGNED_CONTEXT((#979,#981,#982))
REPRESENTATION_CONTEXT('','3D')
);
#978=(
GEOMETRIC_REPRESENTATION_CONTEXT(3)
GLOBAL_UNCERTAINTY_ASSIGNED_CONTEXT((#974))
GLOBAL_UNIT_ASSIGNED_CONTEXT((#979,#981,#982))
REPRESENTATION_CONTEXT('','3D')
);
#979=(
LENGTH_UNIT()
NAMED_UNIT(*)
SI_UNIT(.MILLI.,.METRE.)
);
#980=(
LENGTH_UNIT()
NAMED_UNIT(*)
SI_UNIT($,.METRE.)
);
#981=(
NAMED_UNIT(*)
PLANE_ANGLE_UNIT()
SI_UNIT($,.RADIAN.)
);
#982=(
NAMED_UNIT(*)
SI_UNIT($,.STERADIAN.)
SOLID_ANGLE_UNIT()
);
#983=SHAPE_DEFINITION_REPRESENTATION(#986,#991);
#984=SHAPE_DEFINITION_REPRESENTATION(#987,#992);
#985=SHAPE_DEFINITION_REPRESENTATION(#988,#993);
#986=PRODUCT_DEFINITION_SHAPE('',$,#995);
#987=PRODUCT_DEFINITION_SHAPE('',$,#996);
#988=PRODUCT_DEFINITION_SHAPE('',$,#997);
#989=PRODUCT_DEFINITION_SHAPE($,$,#17);
#990=PRODUCT_DEFINITION_SHAPE($,$,#18);
#991=SHAPE_REPRESENTATION('',(#569,#622,#623),#975);
#992=SHAPE_REPRESENTATION('',(#570),#976);
#993=SHAPE_REPRESENTATION('',(#571),#977);
#994=PRODUCT_DEFINITION_CONTEXT('part definition',#1005,'design');
#995=PRODUCT_DEFINITION('board_housing','board_housing v7',#998,#994);
#996=PRODUCT_DEFINITION('uC_Agri-PV','uC_Agri-PV v1',#999,#994);
#997=PRODUCT_DEFINITION('adapter_stange','adapter_stange',#1000,#994);
#998=PRODUCT_DEFINITION_FORMATION('',$,#1007);
#999=PRODUCT_DEFINITION_FORMATION('',$,#1008);
#1000=PRODUCT_DEFINITION_FORMATION('',$,#1009);
#1001=PRODUCT_RELATED_PRODUCT_CATEGORY('board_housing v7',
'board_housing v7',(#1007));
#1002=PRODUCT_RELATED_PRODUCT_CATEGORY('uC_Agri-PV v1','uC_Agri-PV v1',
(#1008));
#1003=PRODUCT_RELATED_PRODUCT_CATEGORY('adapter_stange',
'adapter_stange',(#1009));
#1004=APPLICATION_PROTOCOL_DEFINITION('international standard',
'automotive_design',2009,#1005);
#1005=APPLICATION_CONTEXT(
'Core Data for Automotive Mechanical Design Process');
#1006=PRODUCT_CONTEXT('part definition',#1005,'mechanical');
#1007=PRODUCT('board_housing','board_housing v7',$,(#1006));
#1008=PRODUCT('uC_Agri-PV','uC_Agri-PV v1','KiCad electronic assembly',
(#1006));
#1009=PRODUCT('adapter_stange','adapter_stange',$,(#1006));
#1010=PRESENTATION_STYLE_ASSIGNMENT((#1011));
#1011=SURFACE_STYLE_USAGE(.BOTH.,#1012);
#1012=SURFACE_SIDE_STYLE('',(#1013));
#1013=SURFACE_STYLE_FILL_AREA(#1014);
#1014=FILL_AREA_STYLE('Stahl - satiniert',(#1015));
#1015=FILL_AREA_STYLE_COLOUR('Stahl - satiniert',#1016);
#1016=COLOUR_RGB('Stahl - satiniert',0.627450980392157,0.627450980392157,
0.627450980392157);
ENDSEC;
END-ISO-10303-21;
