ISO-10303-21;
HEADER;
/* Generated by software containing ST-Developer
 * from STEP Tools, Inc. (www.steptools.com) 
 */

FILE_DESCRIPTION(
/* description */ (''),
/* implementation_level */ '2;1');

FILE_NAME(
/* name */ 'board_housing_o.step',
/* time_stamp */ '2026-01-22T12:53:06+01:00',
/* author */ (''),
/* organization */ (''),
/* preprocessor_version */ 'ST-DEVELOPER v20.1',
/* originating_system */ 'Autodesk Translation Framework v14.21.0.0',
/* authorisation */ '');

FILE_SCHEMA (('AUTOMOTIVE_DESIGN { 1 0 10303 214 3 1 1 }'));
ENDSEC;

DATA;
#10=MECHANICAL_DESIGN_GEOMETRIC_PRESENTATION_REPRESENTATION('',(#17),#663);
#11=SHAPE_REPRESENTATION_RELATIONSHIP('SRR','None',#672,#12);
#12=ADVANCED_BREP_SHAPE_REPRESENTATION('',(#18),#661);
#13=ITEM_DEFINED_TRANSFORMATION($,$,#407,#436);
#14=(
REPRESENTATION_RELATIONSHIP($,$,#673,#672)
REPRESENTATION_RELATIONSHIP_WITH_TRANSFORMATION(#13)
SHAPE_REPRESENTATION_RELATIONSHIP()
);
#15=CONTEXT_DEPENDENT_SHAPE_REPRESENTATION(#14,#671);
#16=NEXT_ASSEMBLY_USAGE_OCCURRENCE('uC_Agri-PV v1:2','uC_Agri-PV v1:2',
'uC_Agri-PV v1:2',#675,#676,'uC_Agri-PV v1:2');
#17=STYLED_ITEM('',(#686),#18);
#18=MANIFOLD_SOLID_BREP('Deckel',#405);
#19=FACE_BOUND('',#72,.T.);
#20=FACE_BOUND('',#75,.T.);
#21=FACE_BOUND('',#77,.T.);
#22=FACE_BOUND('',#80,.T.);
#23=PLANE('',#417);
#24=PLANE('',#418);
#25=PLANE('',#419);
#26=PLANE('',#420);
#27=PLANE('',#424);
#28=PLANE('',#425);
#29=PLANE('',#426);
#30=PLANE('',#427);
#31=PLANE('',#428);
#32=PLANE('',#429);
#33=PLANE('',#430);
#34=PLANE('',#431);
#35=PLANE('',#432);
#36=PLANE('',#433);
#37=PLANE('',#434);
#38=PLANE('',#435);
#39=FACE_OUTER_BOUND('',#59,.T.);
#40=FACE_OUTER_BOUND('',#60,.T.);
#41=FACE_OUTER_BOUND('',#61,.T.);
#42=FACE_OUTER_BOUND('',#62,.T.);
#43=FACE_OUTER_BOUND('',#63,.T.);
#44=FACE_OUTER_BOUND('',#64,.T.);
#45=FACE_OUTER_BOUND('',#65,.T.);
#46=FACE_OUTER_BOUND('',#66,.T.);
#47=FACE_OUTER_BOUND('',#67,.T.);
#48=FACE_OUTER_BOUND('',#68,.T.);
#49=FACE_OUTER_BOUND('',#69,.T.);
#50=FACE_OUTER_BOUND('',#70,.T.);
#51=FACE_OUTER_BOUND('',#71,.T.);
#52=FACE_OUTER_BOUND('',#73,.T.);
#53=FACE_OUTER_BOUND('',#74,.T.);
#54=FACE_OUTER_BOUND('',#76,.T.);
#55=FACE_OUTER_BOUND('',#78,.T.);
#56=FACE_OUTER_BOUND('',#79,.T.);
#57=FACE_OUTER_BOUND('',#81,.T.);
#58=FACE_OUTER_BOUND('',#82,.T.);
#59=EDGE_LOOP('',(#273,#274,#275,#276));
#60=EDGE_LOOP('',(#277,#278,#279,#280));
#61=EDGE_LOOP('',(#281,#282,#283,#284));
#62=EDGE_LOOP('',(#285,#286,#287,#288));
#63=EDGE_LOOP('',(#289,#290,#291,#292));
#64=EDGE_LOOP('',(#293,#294,#295,#296));
#65=EDGE_LOOP('',(#297,#298,#299,#300));
#66=EDGE_LOOP('',(#301,#302,#303,#304));
#67=EDGE_LOOP('',(#305,#306,#307,#308,#309,#310,#311,#312));
#68=EDGE_LOOP('',(#313,#314,#315,#316,#317,#318,#319,#320));
#69=EDGE_LOOP('',(#321,#322,#323,#324));
#70=EDGE_LOOP('',(#325,#326,#327,#328));
#71=EDGE_LOOP('',(#329,#330,#331,#332,#333,#334,#335,#336,#337));
#72=EDGE_LOOP('',(#338));
#73=EDGE_LOOP('',(#339,#340,#341,#342));
#74=EDGE_LOOP('',(#343,#344,#345,#346,#347,#348,#349,#350,#351));
#75=EDGE_LOOP('',(#352));
#76=EDGE_LOOP('',(#353,#354,#355,#356,#357,#358,#359));
#77=EDGE_LOOP('',(#360));
#78=EDGE_LOOP('',(#361,#362,#363,#364));
#79=EDGE_LOOP('',(#365,#366,#367,#368,#369,#370,#371));
#80=EDGE_LOOP('',(#372));
#81=EDGE_LOOP('',(#373,#374,#375,#376));
#82=EDGE_LOOP('',(#377,#378,#379,#380));
#83=LINE('',#551,#129);
#84=LINE('',#557,#130);
#85=LINE('',#564,#131);
#86=LINE('',#567,#132);
#87=LINE('',#570,#133);
#88=LINE('',#572,#134);
#89=LINE('',#573,#135);
#90=LINE('',#577,#136);
#91=LINE('',#579,#137);
#92=LINE('',#581,#138);
#93=LINE('',#582,#139);
#94=LINE('',#585,#140);
#95=LINE('',#587,#141);
#96=LINE('',#588,#142);
#97=LINE('',#592,#143);
#98=LINE('',#594,#144);
#99=LINE('',#596,#145);
#100=LINE('',#597,#146);
#101=LINE('',#603,#147);
#102=LINE('',#605,#148);
#103=LINE('',#606,#149);
#104=LINE('',#608,#150);
#105=LINE('',#610,#151);
#106=LINE('',#611,#152);
#107=LINE('',#614,#153);
#108=LINE('',#616,#154);
#109=LINE('',#617,#155);
#110=LINE('',#619,#156);
#111=LINE('',#621,#157);
#112=LINE('',#622,#158);
#113=LINE('',#625,#159);
#114=LINE('',#627,#160);
#115=LINE('',#628,#161);
#116=LINE('',#631,#162);
#117=LINE('',#633,#163);
#118=LINE('',#634,#164);
#119=LINE('',#637,#165);
#120=LINE('',#638,#166);
#121=LINE('',#641,#167);
#122=LINE('',#642,#168);
#123=LINE('',#644,#169);
#124=LINE('',#647,#170);
#125=LINE('',#648,#171);
#126=LINE('',#651,#172);
#127=LINE('',#652,#173);
#128=LINE('',#654,#174);
#129=VECTOR('',#445,2.);
#130=VECTOR('',#452,2.);
#131=VECTOR('',#459,10.);
#132=VECTOR('',#462,10.);
#133=VECTOR('',#465,10.);
#134=VECTOR('',#466,10.);
#135=VECTOR('',#467,10.);
#136=VECTOR('',#470,10.);
#137=VECTOR('',#471,10.);
#138=VECTOR('',#472,10.);
#139=VECTOR('',#473,10.);
#140=VECTOR('',#476,10.);
#141=VECTOR('',#477,10.);
#142=VECTOR('',#478,10.);
#143=VECTOR('',#481,10.);
#144=VECTOR('',#482,10.);
#145=VECTOR('',#483,10.);
#146=VECTOR('',#484,10.);
#147=VECTOR('',#493,10.);
#148=VECTOR('',#494,10.);
#149=VECTOR('',#495,10.);
#150=VECTOR('',#496,10.);
#151=VECTOR('',#497,10.);
#152=VECTOR('',#498,10.);
#153=VECTOR('',#501,10.);
#154=VECTOR('',#502,10.);
#155=VECTOR('',#503,10.);
#156=VECTOR('',#504,10.);
#157=VECTOR('',#505,10.);
#158=VECTOR('',#506,10.);
#159=VECTOR('',#509,10.);
#160=VECTOR('',#510,10.);
#161=VECTOR('',#511,10.);
#162=VECTOR('',#514,10.);
#163=VECTOR('',#515,10.);
#164=VECTOR('',#516,10.);
#165=VECTOR('',#519,10.);
#166=VECTOR('',#520,10.);
#167=VECTOR('',#523,10.);
#168=VECTOR('',#524,10.);
#169=VECTOR('',#527,10.);
#170=VECTOR('',#530,10.);
#171=VECTOR('',#531,10.);
#172=VECTOR('',#534,10.);
#173=VECTOR('',#535,10.);
#174=VECTOR('',#538,10.);
#175=CIRCLE('',#409,2.);
#176=CIRCLE('',#410,2.);
#177=CIRCLE('',#412,2.);
#178=CIRCLE('',#413,2.);
#179=CIRCLE('',#415,13.5000000000004);
#180=CIRCLE('',#416,13.5000000000004);
#181=CIRCLE('',#422,13.5000000000004);
#182=CIRCLE('',#423,13.5000000000004);
#183=VERTEX_POINT('',#548);
#184=VERTEX_POINT('',#550);
#185=VERTEX_POINT('',#554);
#186=VERTEX_POINT('',#556);
#187=VERTEX_POINT('',#560);
#188=VERTEX_POINT('',#561);
#189=VERTEX_POINT('',#563);
#190=VERTEX_POINT('',#565);
#191=VERTEX_POINT('',#569);
#192=VERTEX_POINT('',#571);
#193=VERTEX_POINT('',#575);
#194=VERTEX_POINT('',#576);
#195=VERTEX_POINT('',#578);
#196=VERTEX_POINT('',#580);
#197=VERTEX_POINT('',#584);
#198=VERTEX_POINT('',#586);
#199=VERTEX_POINT('',#590);
#200=VERTEX_POINT('',#591);
#201=VERTEX_POINT('',#593);
#202=VERTEX_POINT('',#595);
#203=VERTEX_POINT('',#602);
#204=VERTEX_POINT('',#604);
#205=VERTEX_POINT('',#607);
#206=VERTEX_POINT('',#609);
#207=VERTEX_POINT('',#613);
#208=VERTEX_POINT('',#615);
#209=VERTEX_POINT('',#618);
#210=VERTEX_POINT('',#620);
#211=VERTEX_POINT('',#624);
#212=VERTEX_POINT('',#626);
#213=VERTEX_POINT('',#630);
#214=VERTEX_POINT('',#632);
#215=VERTEX_POINT('',#636);
#216=VERTEX_POINT('',#640);
#217=VERTEX_POINT('',#646);
#218=VERTEX_POINT('',#650);
#219=EDGE_CURVE('',#183,#183,#175,.T.);
#220=EDGE_CURVE('',#183,#184,#83,.T.);
#221=EDGE_CURVE('',#184,#184,#176,.T.);
#222=EDGE_CURVE('',#185,#185,#177,.T.);
#223=EDGE_CURVE('',#185,#186,#84,.T.);
#224=EDGE_CURVE('',#186,#186,#178,.T.);
#225=EDGE_CURVE('',#187,#188,#179,.T.);
#226=EDGE_CURVE('',#189,#187,#85,.T.);
#227=EDGE_CURVE('',#190,#189,#180,.T.);
#228=EDGE_CURVE('',#190,#188,#86,.T.);
#229=EDGE_CURVE('',#188,#191,#87,.T.);
#230=EDGE_CURVE('',#192,#190,#88,.T.);
#231=EDGE_CURVE('',#191,#192,#89,.T.);
#232=EDGE_CURVE('',#193,#194,#90,.T.);
#233=EDGE_CURVE('',#195,#193,#91,.T.);
#234=EDGE_CURVE('',#196,#195,#92,.T.);
#235=EDGE_CURVE('',#194,#196,#93,.T.);
#236=EDGE_CURVE('',#197,#187,#94,.T.);
#237=EDGE_CURVE('',#198,#197,#95,.T.);
#238=EDGE_CURVE('',#189,#198,#96,.T.);
#239=EDGE_CURVE('',#199,#200,#97,.T.);
#240=EDGE_CURVE('',#199,#201,#98,.T.);
#241=EDGE_CURVE('',#202,#201,#99,.T.);
#242=EDGE_CURVE('',#200,#202,#100,.T.);
#243=EDGE_CURVE('',#195,#199,#181,.T.);
#244=EDGE_CURVE('',#201,#193,#182,.T.);
#245=EDGE_CURVE('',#203,#202,#101,.T.);
#246=EDGE_CURVE('',#204,#203,#102,.T.);
#247=EDGE_CURVE('',#198,#204,#103,.T.);
#248=EDGE_CURVE('',#197,#205,#104,.T.);
#249=EDGE_CURVE('',#205,#206,#105,.T.);
#250=EDGE_CURVE('',#206,#200,#106,.T.);
#251=EDGE_CURVE('',#196,#207,#107,.T.);
#252=EDGE_CURVE('',#207,#208,#108,.T.);
#253=EDGE_CURVE('',#208,#191,#109,.T.);
#254=EDGE_CURVE('',#192,#209,#110,.T.);
#255=EDGE_CURVE('',#209,#210,#111,.T.);
#256=EDGE_CURVE('',#210,#194,#112,.T.);
#257=EDGE_CURVE('',#205,#211,#113,.T.);
#258=EDGE_CURVE('',#212,#211,#114,.T.);
#259=EDGE_CURVE('',#206,#212,#115,.T.);
#260=EDGE_CURVE('',#213,#211,#116,.T.);
#261=EDGE_CURVE('',#214,#213,#117,.T.);
#262=EDGE_CURVE('',#214,#212,#118,.T.);
#263=EDGE_CURVE('',#215,#208,#119,.T.);
#264=EDGE_CURVE('',#213,#215,#120,.T.);
#265=EDGE_CURVE('',#215,#216,#121,.T.);
#266=EDGE_CURVE('',#216,#207,#122,.T.);
#267=EDGE_CURVE('',#216,#214,#123,.T.);
#268=EDGE_CURVE('',#217,#204,#124,.T.);
#269=EDGE_CURVE('',#209,#217,#125,.T.);
#270=EDGE_CURVE('',#218,#217,#126,.T.);
#271=EDGE_CURVE('',#210,#218,#127,.T.);
#272=EDGE_CURVE('',#203,#218,#128,.T.);
#273=ORIENTED_EDGE('',*,*,#219,.F.);
#274=ORIENTED_EDGE('',*,*,#220,.T.);
#275=ORIENTED_EDGE('',*,*,#221,.F.);
#276=ORIENTED_EDGE('',*,*,#220,.F.);
#277=ORIENTED_EDGE('',*,*,#222,.F.);
#278=ORIENTED_EDGE('',*,*,#223,.T.);
#279=ORIENTED_EDGE('',*,*,#224,.F.);
#280=ORIENTED_EDGE('',*,*,#223,.F.);
#281=ORIENTED_EDGE('',*,*,#225,.F.);
#282=ORIENTED_EDGE('',*,*,#226,.F.);
#283=ORIENTED_EDGE('',*,*,#227,.F.);
#284=ORIENTED_EDGE('',*,*,#228,.T.);
#285=ORIENTED_EDGE('',*,*,#229,.F.);
#286=ORIENTED_EDGE('',*,*,#228,.F.);
#287=ORIENTED_EDGE('',*,*,#230,.F.);
#288=ORIENTED_EDGE('',*,*,#231,.F.);
#289=ORIENTED_EDGE('',*,*,#232,.F.);
#290=ORIENTED_EDGE('',*,*,#233,.F.);
#291=ORIENTED_EDGE('',*,*,#234,.F.);
#292=ORIENTED_EDGE('',*,*,#235,.F.);
#293=ORIENTED_EDGE('',*,*,#236,.F.);
#294=ORIENTED_EDGE('',*,*,#237,.F.);
#295=ORIENTED_EDGE('',*,*,#238,.F.);
#296=ORIENTED_EDGE('',*,*,#226,.T.);
#297=ORIENTED_EDGE('',*,*,#239,.F.);
#298=ORIENTED_EDGE('',*,*,#240,.T.);
#299=ORIENTED_EDGE('',*,*,#241,.F.);
#300=ORIENTED_EDGE('',*,*,#242,.F.);
#301=ORIENTED_EDGE('',*,*,#243,.F.);
#302=ORIENTED_EDGE('',*,*,#233,.T.);
#303=ORIENTED_EDGE('',*,*,#244,.F.);
#304=ORIENTED_EDGE('',*,*,#240,.F.);
#305=ORIENTED_EDGE('',*,*,#242,.T.);
#306=ORIENTED_EDGE('',*,*,#245,.F.);
#307=ORIENTED_EDGE('',*,*,#246,.F.);
#308=ORIENTED_EDGE('',*,*,#247,.F.);
#309=ORIENTED_EDGE('',*,*,#237,.T.);
#310=ORIENTED_EDGE('',*,*,#248,.T.);
#311=ORIENTED_EDGE('',*,*,#249,.T.);
#312=ORIENTED_EDGE('',*,*,#250,.T.);
#313=ORIENTED_EDGE('',*,*,#235,.T.);
#314=ORIENTED_EDGE('',*,*,#251,.T.);
#315=ORIENTED_EDGE('',*,*,#252,.T.);
#316=ORIENTED_EDGE('',*,*,#253,.T.);
#317=ORIENTED_EDGE('',*,*,#231,.T.);
#318=ORIENTED_EDGE('',*,*,#254,.T.);
#319=ORIENTED_EDGE('',*,*,#255,.T.);
#320=ORIENTED_EDGE('',*,*,#256,.T.);
#321=ORIENTED_EDGE('',*,*,#249,.F.);
#322=ORIENTED_EDGE('',*,*,#257,.T.);
#323=ORIENTED_EDGE('',*,*,#258,.F.);
#324=ORIENTED_EDGE('',*,*,#259,.F.);
#325=ORIENTED_EDGE('',*,*,#258,.T.);
#326=ORIENTED_EDGE('',*,*,#260,.F.);
#327=ORIENTED_EDGE('',*,*,#261,.F.);
#328=ORIENTED_EDGE('',*,*,#262,.T.);
#329=ORIENTED_EDGE('',*,*,#229,.T.);
#330=ORIENTED_EDGE('',*,*,#253,.F.);
#331=ORIENTED_EDGE('',*,*,#263,.F.);
#332=ORIENTED_EDGE('',*,*,#264,.F.);
#333=ORIENTED_EDGE('',*,*,#260,.T.);
#334=ORIENTED_EDGE('',*,*,#257,.F.);
#335=ORIENTED_EDGE('',*,*,#248,.F.);
#336=ORIENTED_EDGE('',*,*,#236,.T.);
#337=ORIENTED_EDGE('',*,*,#225,.T.);
#338=ORIENTED_EDGE('',*,*,#224,.T.);
#339=ORIENTED_EDGE('',*,*,#265,.F.);
#340=ORIENTED_EDGE('',*,*,#263,.T.);
#341=ORIENTED_EDGE('',*,*,#252,.F.);
#342=ORIENTED_EDGE('',*,*,#266,.F.);
#343=ORIENTED_EDGE('',*,*,#239,.T.);
#344=ORIENTED_EDGE('',*,*,#250,.F.);
#345=ORIENTED_EDGE('',*,*,#259,.T.);
#346=ORIENTED_EDGE('',*,*,#262,.F.);
#347=ORIENTED_EDGE('',*,*,#267,.F.);
#348=ORIENTED_EDGE('',*,*,#266,.T.);
#349=ORIENTED_EDGE('',*,*,#251,.F.);
#350=ORIENTED_EDGE('',*,*,#234,.T.);
#351=ORIENTED_EDGE('',*,*,#243,.T.);
#352=ORIENTED_EDGE('',*,*,#219,.T.);
#353=ORIENTED_EDGE('',*,*,#238,.T.);
#354=ORIENTED_EDGE('',*,*,#247,.T.);
#355=ORIENTED_EDGE('',*,*,#268,.F.);
#356=ORIENTED_EDGE('',*,*,#269,.F.);
#357=ORIENTED_EDGE('',*,*,#254,.F.);
#358=ORIENTED_EDGE('',*,*,#230,.T.);
#359=ORIENTED_EDGE('',*,*,#227,.T.);
#360=ORIENTED_EDGE('',*,*,#222,.T.);
#361=ORIENTED_EDGE('',*,*,#269,.T.);
#362=ORIENTED_EDGE('',*,*,#270,.F.);
#363=ORIENTED_EDGE('',*,*,#271,.F.);
#364=ORIENTED_EDGE('',*,*,#255,.F.);
#365=ORIENTED_EDGE('',*,*,#232,.T.);
#366=ORIENTED_EDGE('',*,*,#256,.F.);
#367=ORIENTED_EDGE('',*,*,#271,.T.);
#368=ORIENTED_EDGE('',*,*,#272,.F.);
#369=ORIENTED_EDGE('',*,*,#245,.T.);
#370=ORIENTED_EDGE('',*,*,#241,.T.);
#371=ORIENTED_EDGE('',*,*,#244,.T.);
#372=ORIENTED_EDGE('',*,*,#221,.T.);
#373=ORIENTED_EDGE('',*,*,#272,.T.);
#374=ORIENTED_EDGE('',*,*,#270,.T.);
#375=ORIENTED_EDGE('',*,*,#268,.T.);
#376=ORIENTED_EDGE('',*,*,#246,.T.);
#377=ORIENTED_EDGE('',*,*,#261,.T.);
#378=ORIENTED_EDGE('',*,*,#264,.T.);
#379=ORIENTED_EDGE('',*,*,#265,.T.);
#380=ORIENTED_EDGE('',*,*,#267,.T.);
#381=CYLINDRICAL_SURFACE('',#408,2.);
#382=CYLINDRICAL_SURFACE('',#411,2.);
#383=CYLINDRICAL_SURFACE('',#414,13.5000000000004);
#384=CYLINDRICAL_SURFACE('',#421,13.5000000000004);
#385=ADVANCED_FACE('',(#39),#381,.F.);
#386=ADVANCED_FACE('',(#40),#382,.F.);
#387=ADVANCED_FACE('',(#41),#383,.F.);
#388=ADVANCED_FACE('',(#42),#23,.F.);
#389=ADVANCED_FACE('',(#43),#24,.F.);
#390=ADVANCED_FACE('',(#44),#25,.F.);
#391=ADVANCED_FACE('',(#45),#26,.F.);
#392=ADVANCED_FACE('',(#46),#384,.F.);
#393=ADVANCED_FACE('',(#47),#27,.T.);
#394=ADVANCED_FACE('',(#48),#28,.T.);
#395=ADVANCED_FACE('',(#49),#29,.F.);
#396=ADVANCED_FACE('',(#50),#30,.T.);
#397=ADVANCED_FACE('',(#51,#19),#31,.T.);
#398=ADVANCED_FACE('',(#52),#32,.T.);
#399=ADVANCED_FACE('',(#53,#20),#33,.T.);
#400=ADVANCED_FACE('',(#54,#21),#34,.T.);
#401=ADVANCED_FACE('',(#55),#35,.T.);
#402=ADVANCED_FACE('',(#56,#22),#36,.T.);
#403=ADVANCED_FACE('',(#57),#37,.T.);
#404=ADVANCED_FACE('',(#58),#38,.F.);
#405=CLOSED_SHELL('',(#385,#386,#387,#388,#389,#390,#391,#392,#393,#394,
#395,#396,#397,#398,#399,#400,#401,#402,#403,#404));
#406=AXIS2_PLACEMENT_3D('',#545,#437,#438);
#407=AXIS2_PLACEMENT_3D('',#546,#439,#440);
#408=AXIS2_PLACEMENT_3D('',#547,#441,#442);
#409=AXIS2_PLACEMENT_3D('',#549,#443,#444);
#410=AXIS2_PLACEMENT_3D('',#552,#446,#447);
#411=AXIS2_PLACEMENT_3D('',#553,#448,#449);
#412=AXIS2_PLACEMENT_3D('',#555,#450,#451);
#413=AXIS2_PLACEMENT_3D('',#558,#453,#454);
#414=AXIS2_PLACEMENT_3D('',#559,#455,#456);
#415=AXIS2_PLACEMENT_3D('',#562,#457,#458);
#416=AXIS2_PLACEMENT_3D('',#566,#460,#461);
#417=AXIS2_PLACEMENT_3D('',#568,#463,#464);
#418=AXIS2_PLACEMENT_3D('',#574,#468,#469);
#419=AXIS2_PLACEMENT_3D('',#583,#474,#475);
#420=AXIS2_PLACEMENT_3D('',#589,#479,#480);
#421=AXIS2_PLACEMENT_3D('',#598,#485,#486);
#422=AXIS2_PLACEMENT_3D('',#599,#487,#488);
#423=AXIS2_PLACEMENT_3D('',#600,#489,#490);
#424=AXIS2_PLACEMENT_3D('',#601,#491,#492);
#425=AXIS2_PLACEMENT_3D('',#612,#499,#500);
#426=AXIS2_PLACEMENT_3D('',#623,#507,#508);
#427=AXIS2_PLACEMENT_3D('',#629,#512,#513);
#428=AXIS2_PLACEMENT_3D('',#635,#517,#518);
#429=AXIS2_PLACEMENT_3D('',#639,#521,#522);
#430=AXIS2_PLACEMENT_3D('',#643,#525,#526);
#431=AXIS2_PLACEMENT_3D('',#645,#528,#529);
#432=AXIS2_PLACEMENT_3D('',#649,#532,#533);
#433=AXIS2_PLACEMENT_3D('',#653,#536,#537);
#434=AXIS2_PLACEMENT_3D('',#655,#539,#540);
#435=AXIS2_PLACEMENT_3D('',#656,#541,#542);
#436=AXIS2_PLACEMENT_3D('',#657,#543,#544);
#437=DIRECTION('axis',(0.,0.,1.));
#438=DIRECTION('refdir',(1.,0.,0.));
#439=DIRECTION('axis',(0.,0.,1.));
#440=DIRECTION('refdir',(1.,0.,0.));
#441=DIRECTION('center_axis',(-1.,0.,0.));
#442=DIRECTION('ref_axis',(0.,1.,0.));
#443=DIRECTION('center_axis',(-1.,0.,-7.28934309097325E-17));
#444=DIRECTION('ref_axis',(0.,1.,0.));
#445=DIRECTION('',(-1.,0.,0.));
#446=DIRECTION('center_axis',(1.,0.,0.));
#447=DIRECTION('ref_axis',(0.,1.,0.));
#448=DIRECTION('center_axis',(-1.,0.,0.));
#449=DIRECTION('ref_axis',(0.,1.,0.));
#450=DIRECTION('center_axis',(-1.,0.,0.));
#451=DIRECTION('ref_axis',(0.,1.,0.));
#452=DIRECTION('',(-1.,0.,0.));
#453=DIRECTION('center_axis',(1.,0.,0.));
#454=DIRECTION('ref_axis',(0.,1.,0.));
#455=DIRECTION('center_axis',(-1.,0.,0.));
#456=DIRECTION('ref_axis',(0.,1.,1.0279842820603E-17));
#457=DIRECTION('center_axis',(1.,0.,0.));
#458=DIRECTION('ref_axis',(0.,1.,1.0279842820603E-17));
#459=DIRECTION('',(-1.,0.,0.));
#460=DIRECTION('center_axis',(-1.,0.,0.));
#461=DIRECTION('ref_axis',(0.,1.,1.0279842820603E-17));
#462=DIRECTION('',(-1.,0.,0.));
#463=DIRECTION('center_axis',(0.,-3.14399440601816E-16,1.));
#464=DIRECTION('ref_axis',(0.,1.,3.14399440601816E-16));
#465=DIRECTION('',(0.,-1.,-3.14399440601816E-16));
#466=DIRECTION('',(0.,1.,3.14399440601816E-16));
#467=DIRECTION('',(1.,0.,0.));
#468=DIRECTION('center_axis',(0.,-3.14399440601816E-16,1.));
#469=DIRECTION('ref_axis',(0.,1.,3.14399440601816E-16));
#470=DIRECTION('',(0.,-1.,-3.14399440601816E-16));
#471=DIRECTION('',(-1.,0.,0.));
#472=DIRECTION('',(-2.2917653901567E-32,1.,3.14399440601816E-16));
#473=DIRECTION('',(1.,0.,0.));
#474=DIRECTION('center_axis',(0.,1.,0.));
#475=DIRECTION('ref_axis',(0.,0.,-1.));
#476=DIRECTION('',(0.,0.,1.));
#477=DIRECTION('',(-1.,0.,3.56698160522139E-17));
#478=DIRECTION('',(0.,0.,-1.));
#479=DIRECTION('center_axis',(0.,1.,0.));
#480=DIRECTION('ref_axis',(0.,0.,-1.));
#481=DIRECTION('',(7.28934309097325E-17,0.,-1.));
#482=DIRECTION('',(-1.,0.,0.));
#483=DIRECTION('',(0.,0.,1.));
#484=DIRECTION('',(-1.,0.,3.56698160522139E-17));
#485=DIRECTION('center_axis',(-1.,0.,0.));
#486=DIRECTION('ref_axis',(0.,1.,1.0279842820603E-17));
#487=DIRECTION('center_axis',(-1.,0.,-7.28934309097325E-17));
#488=DIRECTION('ref_axis',(0.,1.,1.0279842820603E-17));
#489=DIRECTION('center_axis',(1.,0.,0.));
#490=DIRECTION('ref_axis',(0.,1.,1.0279842820603E-17));
#491=DIRECTION('center_axis',(-3.56698160522139E-17,0.,-1.));
#492=DIRECTION('ref_axis',(-1.,0.,3.56698160522139E-17));
#493=DIRECTION('',(0.,-1.,0.));
#494=DIRECTION('',(-1.,0.,3.56698160522139E-17));
#495=DIRECTION('',(0.,1.,0.));
#496=DIRECTION('',(0.,1.,0.));
#497=DIRECTION('',(-1.,0.,3.56698160522139E-17));
#498=DIRECTION('',(6.742510114174E-17,-1.,-2.40504095502778E-33));
#499=DIRECTION('center_axis',(0.,-1.,0.));
#500=DIRECTION('ref_axis',(0.,0.,-1.));
#501=DIRECTION('',(0.,0.,1.));
#502=DIRECTION('',(1.,0.,0.));
#503=DIRECTION('',(0.,0.,-1.));
#504=DIRECTION('',(0.,0.,1.));
#505=DIRECTION('',(-1.,0.,0.));
#506=DIRECTION('',(0.,0.,-1.));
#507=DIRECTION('center_axis',(0.,1.,0.));
#508=DIRECTION('ref_axis',(-1.,0.,0.));
#509=DIRECTION('',(0.,0.,1.));
#510=DIRECTION('',(1.,0.,-1.75596498792754E-17));
#511=DIRECTION('',(0.,0.,1.));
#512=DIRECTION('center_axis',(1.75596498792754E-17,0.,1.));
#513=DIRECTION('ref_axis',(-1.,0.,1.75596498792754E-17));
#514=DIRECTION('',(0.,-1.,0.));
#515=DIRECTION('',(1.,0.,-1.75596498792754E-17));
#516=DIRECTION('',(0.,-1.,0.));
#517=DIRECTION('center_axis',(-1.,0.,0.));
#518=DIRECTION('ref_axis',(0.,0.,-1.));
#519=DIRECTION('',(0.,-1.,0.));
#520=DIRECTION('',(0.,0.,1.));
#521=DIRECTION('center_axis',(0.,0.,-1.));
#522=DIRECTION('ref_axis',(1.,0.,0.));
#523=DIRECTION('',(-1.,0.,0.));
#524=DIRECTION('',(0.,-1.,0.));
#525=DIRECTION('center_axis',(1.,0.,7.28934309097325E-17));
#526=DIRECTION('ref_axis',(-7.28934309097325E-17,0.,1.));
#527=DIRECTION('',(7.28934309097325E-17,0.,-1.));
#528=DIRECTION('center_axis',(1.,0.,0.));
#529=DIRECTION('ref_axis',(0.,0.,-1.));
#530=DIRECTION('',(0.,0.,-1.));
#531=DIRECTION('',(0.,1.,0.));
#532=DIRECTION('center_axis',(0.,0.,1.));
#533=DIRECTION('ref_axis',(1.,0.,0.));
#534=DIRECTION('',(1.,0.,0.));
#535=DIRECTION('',(0.,1.,0.));
#536=DIRECTION('center_axis',(-1.,0.,0.));
#537=DIRECTION('ref_axis',(0.,0.,1.));
#538=DIRECTION('',(0.,0.,1.));
#539=DIRECTION('center_axis',(0.,1.,0.));
#540=DIRECTION('ref_axis',(0.,0.,1.));
#541=DIRECTION('center_axis',(0.,1.,0.));
#542=DIRECTION('ref_axis',(1.,0.,0.));
#543=DIRECTION('',(0.,0.,1.));
#544=DIRECTION('',(1.,0.,0.));
#545=CARTESIAN_POINT('',(0.,0.,0.));
#546=CARTESIAN_POINT('',(0.,0.,0.));
#547=CARTESIAN_POINT('Origin',(123.25,21.,29.));
#548=CARTESIAN_POINT('',(-0.250000000000004,19.,29.));
#549=CARTESIAN_POINT('Origin',(-0.250000000000004,21.,29.));
#550=CARTESIAN_POINT('',(-1.25,19.,29.));
#551=CARTESIAN_POINT('',(123.25,19.,29.));
#552=CARTESIAN_POINT('Origin',(-1.25,21.,29.));
#553=CARTESIAN_POINT('Origin',(123.25,21.,29.));
#554=CARTESIAN_POINT('',(123.25,19.,29.));
#555=CARTESIAN_POINT('Origin',(123.25,21.,29.));
#556=CARTESIAN_POINT('',(122.25,19.,29.));
#557=CARTESIAN_POINT('',(123.25,19.,29.));
#558=CARTESIAN_POINT('Origin',(122.25,21.,29.));
#559=CARTESIAN_POINT('Origin',(123.25,53.5999999999997,1.24999999999966));
#560=CARTESIAN_POINT('',(122.25,67.1,1.24999999999966));
#561=CARTESIAN_POINT('',(122.25,53.5999999999997,14.75));
#562=CARTESIAN_POINT('Origin',(122.25,53.5999999999997,1.24999999999966));
#563=CARTESIAN_POINT('',(123.25,67.1,1.24999999999966));
#564=CARTESIAN_POINT('',(123.25,67.1,1.24999999999966));
#565=CARTESIAN_POINT('',(123.25,53.5999999999997,14.75));
#566=CARTESIAN_POINT('Origin',(123.25,53.5999999999997,1.24999999999966));
#567=CARTESIAN_POINT('',(123.25,53.5999999999997,14.75));
#568=CARTESIAN_POINT('Origin',(123.25,-2.89999999999999,14.75));
#569=CARTESIAN_POINT('',(122.25,-2.89999999999999,14.75));
#570=CARTESIAN_POINT('',(122.25,84.6,14.75));
#571=CARTESIAN_POINT('',(123.25,-2.89999999999999,14.75));
#572=CARTESIAN_POINT('',(123.25,84.6,14.75));
#573=CARTESIAN_POINT('',(92.125,-2.89999999999999,14.75));
#574=CARTESIAN_POINT('Origin',(123.25,-2.89999999999999,14.75));
#575=CARTESIAN_POINT('',(-1.25,53.5999999999997,14.75));
#576=CARTESIAN_POINT('',(-1.25,-2.89999999999999,14.75));
#577=CARTESIAN_POINT('',(-1.25,84.6,14.75));
#578=CARTESIAN_POINT('',(-0.250000000000004,53.5999999999997,14.75));
#579=CARTESIAN_POINT('',(123.25,53.5999999999997,14.75));
#580=CARTESIAN_POINT('',(-0.250000000000004,-2.89999999999999,14.75));
#581=CARTESIAN_POINT('',(-0.250000000000004,84.6,14.75));
#582=CARTESIAN_POINT('',(92.125,-2.89999999999999,14.75));
#583=CARTESIAN_POINT('Origin',(123.25,67.1,1.24999999999966));
#584=CARTESIAN_POINT('',(122.25,67.1,-1.25));
#585=CARTESIAN_POINT('',(122.25,67.1,25.2499999999998));
#586=CARTESIAN_POINT('',(123.25,67.1,-1.25));
#587=CARTESIAN_POINT('',(123.25,67.1,-1.25));
#588=CARTESIAN_POINT('',(123.25,67.1,25.7499999999998));
#589=CARTESIAN_POINT('Origin',(123.25,67.1,1.24999999999966));
#590=CARTESIAN_POINT('',(-0.250000000000004,67.1,1.24999999999966));
#591=CARTESIAN_POINT('',(-0.250000000000004,67.1,-1.25));
#592=CARTESIAN_POINT('',(-0.250000000000004,67.1,0.499999999999822));
#593=CARTESIAN_POINT('',(-1.25,67.1,1.24999999999966));
#594=CARTESIAN_POINT('',(123.25,67.1,1.24999999999966));
#595=CARTESIAN_POINT('',(-1.25,67.1,-1.25));
#596=CARTESIAN_POINT('',(-1.25,67.1,-1.71043734731313E-13));
#597=CARTESIAN_POINT('',(123.25,67.1,-1.25));
#598=CARTESIAN_POINT('Origin',(123.25,53.5999999999997,1.24999999999966));
#599=CARTESIAN_POINT('Origin',(-0.250000000000004,53.5999999999997,1.24999999999966));
#600=CARTESIAN_POINT('Origin',(-1.25,53.5999999999997,1.24999999999966));
#601=CARTESIAN_POINT('Origin',(123.25,172.1,-1.25));
#602=CARTESIAN_POINT('',(-1.25,173.1,-1.25));
#603=CARTESIAN_POINT('',(-1.25,172.1,-1.25));
#604=CARTESIAN_POINT('',(123.25,173.1,-1.25));
#605=CARTESIAN_POINT('',(123.25,173.1,-1.25));
#606=CARTESIAN_POINT('',(123.25,172.1,-1.25));
#607=CARTESIAN_POINT('',(122.25,103.1,-1.25));
#608=CARTESIAN_POINT('',(122.25,84.6,-1.25));
#609=CARTESIAN_POINT('',(-0.250000000000002,103.1,-1.25));
#610=CARTESIAN_POINT('',(122.75,103.1,-1.25));
#611=CARTESIAN_POINT('',(-0.250000000000004,137.6,-1.25));
#612=CARTESIAN_POINT('Origin',(61.,-2.89999999999999,24.5));
#613=CARTESIAN_POINT('',(-0.250000000000004,-2.89999999999999,49.25));
#614=CARTESIAN_POINT('',(-0.249999999999996,-2.89999999999999,11.625));
#615=CARTESIAN_POINT('',(122.25,-2.89999999999999,49.25));
#616=CARTESIAN_POINT('',(122.25,-2.89999999999999,49.25));
#617=CARTESIAN_POINT('',(122.25,-2.89999999999999,-0.250000000000002));
#618=CARTESIAN_POINT('',(123.25,-2.89999999999999,50.25));
#619=CARTESIAN_POINT('',(123.25,-2.89999999999999,-1.25));
#620=CARTESIAN_POINT('',(-1.25,-2.89999999999999,50.25));
#621=CARTESIAN_POINT('',(123.25,-2.89999999999999,50.25));
#622=CARTESIAN_POINT('',(-1.25,-2.89999999999999,50.25));
#623=CARTESIAN_POINT('Origin',(122.25,103.1,-1.25));
#624=CARTESIAN_POINT('',(122.25,103.1,-0.25));
#625=CARTESIAN_POINT('',(122.25,103.1,-1.25));
#626=CARTESIAN_POINT('',(-0.250000000000002,103.1,-0.25));
#627=CARTESIAN_POINT('',(122.25,103.1,-0.250000000000002));
#628=CARTESIAN_POINT('',(-0.250000000000002,103.1,-1.25));
#629=CARTESIAN_POINT('Origin',(122.25,172.1,-0.250000000000002));
#630=CARTESIAN_POINT('',(122.25,172.1,-0.250000000000002));
#631=CARTESIAN_POINT('',(122.25,172.1,-0.250000000000002));
#632=CARTESIAN_POINT('',(-0.25,172.1,-0.250000000000004));
#633=CARTESIAN_POINT('',(91.625,172.1,-0.250000000000004));
#634=CARTESIAN_POINT('',(-0.25,172.1,-0.250000000000004));
#635=CARTESIAN_POINT('Origin',(122.25,172.1,49.25));
#636=CARTESIAN_POINT('',(122.25,172.1,49.25));
#637=CARTESIAN_POINT('',(122.25,172.1,49.25));
#638=CARTESIAN_POINT('',(122.25,172.1,36.875));
#639=CARTESIAN_POINT('Origin',(-0.250000000000004,172.1,49.25));
#640=CARTESIAN_POINT('',(-0.250000000000004,172.1,49.25));
#641=CARTESIAN_POINT('',(30.375,172.1,49.25));
#642=CARTESIAN_POINT('',(-0.250000000000004,172.1,49.25));
#643=CARTESIAN_POINT('Origin',(-0.25,172.1,-0.250000000000004));
#644=CARTESIAN_POINT('',(-0.250000000000004,172.1,12.125));
#645=CARTESIAN_POINT('Origin',(123.25,172.1,50.25));
#646=CARTESIAN_POINT('',(123.25,173.1,50.25));
#647=CARTESIAN_POINT('',(123.25,173.1,50.25));
#648=CARTESIAN_POINT('',(123.25,172.1,50.25));
#649=CARTESIAN_POINT('Origin',(-1.25,172.1,50.25));
#650=CARTESIAN_POINT('',(-1.25,173.1,50.25));
#651=CARTESIAN_POINT('',(-1.25,173.1,50.25));
#652=CARTESIAN_POINT('',(-1.25,172.1,50.25));
#653=CARTESIAN_POINT('Origin',(-1.25,172.1,-1.25));
#654=CARTESIAN_POINT('',(-1.25,173.1,-1.25));
#655=CARTESIAN_POINT('Origin',(61.,173.1,24.5));
#656=CARTESIAN_POINT('Origin',(61.,172.1,24.5));
#657=CARTESIAN_POINT('',(-13.,152.,9.00000000000006));
#658=UNCERTAINTY_MEASURE_WITH_UNIT(LENGTH_MEASURE(0.01),#664,
'DISTANCE_ACCURACY_VALUE',
'Maximum model space distance between geometric entities at asserted c
onnectivities');
#659=UNCERTAINTY_MEASURE_WITH_UNIT(LENGTH_MEASURE(0.01),#664,
'DISTANCE_ACCURACY_VALUE',
'Maximum model space distance between geometric entities at asserted c
onnectivities');
#660=UNCERTAINTY_MEASURE_WITH_UNIT(LENGTH_MEASURE(0.01),#664,
'DISTANCE_ACCURACY_VALUE',
'Maximum model space distance between geometric entities at asserted c
onnectivities');
#661=(
GEOMETRIC_REPRESENTATION_CONTEXT(3)
GLOBAL_UNCERTAINTY_ASSIGNED_CONTEXT((#658))
GLOBAL_UNIT_ASSIGNED_CONTEXT((#664,#665,#666))
REPRESENTATION_CONTEXT('','3D')
);
#662=(
GEOMETRIC_REPRESENTATION_CONTEXT(3)
GLOBAL_UNCERTAINTY_ASSIGNED_CONTEXT((#659))
GLOBAL_UNIT_ASSIGNED_CONTEXT((#664,#665,#666))
REPRESENTATION_CONTEXT('','3D')
);
#663=(
GEOMETRIC_REPRESENTATION_CONTEXT(3)
GLOBAL_UNCERTAINTY_ASSIGNED_CONTEXT((#660))
GLOBAL_UNIT_ASSIGNED_CONTEXT((#664,#665,#666))
REPRESENTATION_CONTEXT('','3D')
);
#664=(
LENGTH_UNIT()
NAMED_UNIT(*)
SI_UNIT(.MILLI.,.METRE.)
);
#665=(
NAMED_UNIT(*)
PLANE_ANGLE_UNIT()
SI_UNIT($,.RADIAN.)
);
#666=(
NAMED_UNIT(*)
SI_UNIT($,.STERADIAN.)
SOLID_ANGLE_UNIT()
);
#667=SHAPE_DEFINITION_REPRESENTATION(#669,#672);
#668=SHAPE_DEFINITION_REPRESENTATION(#670,#673);
#669=PRODUCT_DEFINITION_SHAPE('',$,#675);
#670=PRODUCT_DEFINITION_SHAPE('',$,#676);
#671=PRODUCT_DEFINITION_SHAPE($,$,#16);
#672=SHAPE_REPRESENTATION('',(#406,#436),#661);
#673=SHAPE_REPRESENTATION('',(#407),#662);
#674=PRODUCT_DEFINITION_CONTEXT('part definition',#682,'design');
#675=PRODUCT_DEFINITION('board_housing','board_housing v7',#677,#674);
#676=PRODUCT_DEFINITION('uC_Agri-PV','uC_Agri-PV v1',#678,#674);
#677=PRODUCT_DEFINITION_FORMATION('',$,#684);
#678=PRODUCT_DEFINITION_FORMATION('',$,#685);
#679=PRODUCT_RELATED_PRODUCT_CATEGORY('board_housing v7',
'board_housing v7',(#684));
#680=PRODUCT_RELATED_PRODUCT_CATEGORY('uC_Agri-PV v1','uC_Agri-PV v1',(#685));
#681=APPLICATION_PROTOCOL_DEFINITION('international standard',
'automotive_design',2009,#682);
#682=APPLICATION_CONTEXT(
'Core Data for Automotive Mechanical Design Process');
#683=PRODUCT_CONTEXT('part definition',#682,'mechanical');
#684=PRODUCT('board_housing','board_housing v7',$,(#683));
#685=PRODUCT('uC_Agri-PV','uC_Agri-PV v1','KiCad electronic assembly',(#683));
#686=PRESENTATION_STYLE_ASSIGNMENT((#687));
#687=SURFACE_STYLE_USAGE(.BOTH.,#688);
#688=SURFACE_SIDE_STYLE('',(#689));
#689=SURFACE_STYLE_FILL_AREA(#690);
#690=FILL_AREA_STYLE('Stahl - satiniert',(#691));
#691=FILL_AREA_STYLE_COLOUR('Stahl - satiniert',#692);
#692=COLOUR_RGB('Stahl - satiniert',0.627450980392157,0.627450980392157,
0.627450980392157);
ENDSEC;
END-ISO-10303-21;
